<?xml version="1.0" standalone="no"?>
<!DOCTYPE svg PUBLIC "-//W3C//DTD SVG 1.1//EN" "http://www.w3.org/Graphics/SVG/1.1/DTD/svg11.dtd" >
<svg xmlns="http://www.w3.org/2000/svg" xmlns:xlink="http://www.w3.org/1999/xlink" version="1.1">
<metadata>
Created by FontForge 20170731 at Fri Feb 12 21:46:55 2021
 By Aleksey,,,
Copyright (c) by Kobi Benezri, www.lineto.com, All rights reserved. http://www.kobibenezri.com
</metadata>
<defs>
<font id="LetteraTextStd" horiz-adv-x="1310" >
  <font-face 
    font-family="Lettera Text Std"
    font-weight="400"
    font-stretch="normal"
    units-per-em="2048"
    panose-1="2 11 5 4 2 1 1 2 1 2"
    ascent="1489"
    descent="-559"
    x-height="1038"
    cap-height="1413"
    bbox="-371 -459 2017 1901"
    underline-thickness="81"
    underline-position="-306"
    unicode-range="U+000D-FB02"
  />
<missing-glyph horiz-adv-x="1163" 
d="M158 0v1413h848v-1413h-848zM268 111h627v1192h-627v-1192z" />
    <glyph glyph-name="f_i" unicode="fi" horiz-adv-x="1216" 
d="M287 1038v117q0 128 89 217.5t216 89.5q96 0 199 -41l-46 -108q-67 35 -151 35q-78 0 -132 -55t-54 -132v-123h323v-110h-323v-928h-121v928h-246v110h246zM938 0v1038h121v-1038h-121zM907 1315q0 37 27 64.5t65 27.5q37 0 65 -27.5t28 -64.5q0 -38 -28 -65t-65 -27
q-38 0 -65 27t-27 65z" />
    <glyph glyph-name="f_l" unicode="fl" horiz-adv-x="1218" 
d="M938 0v1425h121v-1425h-121zM287 1038v117q0 128 89 217.5t216 89.5q96 0 199 -41l-46 -108q-67 35 -151 35q-78 0 -132 -55t-54 -132v-123h323v-110h-323v-928h-121v928h-246v110h246z" />
    <glyph glyph-name=".notdef" horiz-adv-x="1163" 
d="M158 0v1413h848v-1413h-848zM268 111h627v1192h-627v-1192z" />
    <glyph glyph-name=".null" horiz-adv-x="0" 
 />
    <glyph glyph-name=".null" horiz-adv-x="0" 
 />
    <glyph glyph-name="uni000D" unicode="&#xd;" horiz-adv-x="448" 
 />
    <glyph glyph-name="space" unicode=" " horiz-adv-x="448" 
 />
    <glyph glyph-name="exclam" unicode="!" horiz-adv-x="585" 
d="M412 1337l-54 -931h-77l-54 931q0 38 27 65.5t65 27.5t65.5 -27.5t27.5 -65.5zM219 84q0 41 29.5 71.5t70.5 30.5t72 -30.5t31 -71.5t-30.5 -70.5t-72.5 -29.5q-41 0 -70.5 29.5t-29.5 70.5z" />
    <glyph glyph-name="quotedbl" unicode="&#x22;" horiz-adv-x="864" 
d="M258 944h-20q-21 59 -48 146q-47 154 -47 237q0 41 32 72t73 31t72.5 -31t31.5 -72q0 -83 -47 -237q-28 -91 -47 -146zM627 944h-21q-13 36 -47 146q-47 154 -47 237q0 41 31.5 72t72.5 31t73 -31t32 -72q0 -83 -47 -237q-28 -91 -47 -146z" />
    <glyph glyph-name="numbersign" unicode="#" horiz-adv-x="1470" 
d="M479 -82h-106l49 361h-299l14 110h299l53 389h-303l15 111h303l49 356h106l-49 -356h328l49 356h107l-50 -356h304l-15 -111h-303l-53 -389h307l-14 -110h-307l-50 -361h-106l49 361h-328zM596 778l-53 -389h327l54 389h-328z" />
    <glyph glyph-name="dollar" unicode="$" horiz-adv-x="1155" 
d="M530 -156v158q-101 10 -183 49t-132.5 94.5t-78.5 117t-30 122.5h125q3 -46 27.5 -91.5t68 -86t115.5 -65.5t160 -25q92 0 161 21t104.5 55t52 69.5t16.5 71.5q0 27 -5 49t-11.5 39.5t-22.5 32t-28.5 24.5t-40.5 19.5t-47.5 15.5t-59.5 13.5t-67 11.5t-79 12
q-74 12 -131 25.5t-116 38.5t-97 58t-62 83t-24 114q0 12 2 29t11 47.5t24 59t44.5 60.5t68.5 56t100 41t135 19v155h101v-159q155 -20 247 -111t111 -248h-121q-23 130 -98 190t-215 60q-76 0 -138 -19t-104.5 -65t-42.5 -113q0 -28 6 -50.5t20.5 -40.5t29 -31.5t42 -25
t47.5 -18.5t57 -15t60.5 -12t67.5 -11q190 -31 264 -58q147 -54 184 -174q13 -45 13 -100q0 -56 -23.5 -110.5t-71.5 -105t-135 -83.5t-200 -37v-156h-101z" />
    <glyph glyph-name="percent" unicode="%" horiz-adv-x="1292" 
d="M74 1155q0 114 81.5 196.5t196.5 82.5t198 -82.5t83 -196.5q0 -117 -82.5 -199t-198.5 -82t-197 82t-81 199zM182 1155q0 -73 49.5 -123.5t120.5 -50.5q72 0 123 50.5t51 123.5q0 71 -51 121.5t-123 50.5q-70 0 -120 -50.5t-50 -121.5zM1008 1413h116l-839 -1413h-117z
M659 260q0 114 82 196.5t197 82.5t198 -82.5t83 -196.5q0 -117 -82.5 -198.5t-198.5 -81.5t-197.5 81.5t-81.5 198.5zM768 260q0 -73 49.5 -123.5t120.5 -50.5q72 0 123 50.5t51 123.5q0 71 -51 121.5t-123 50.5q-70 0 -120 -50.5t-50 -121.5z" />
    <glyph glyph-name="ampersand" unicode="&#x26;" horiz-adv-x="1210" 
d="M1020 188l145 -188h-135l-92 115q-164 -131 -381 -131q-187 0 -314.5 122t-127.5 297q0 69 28.5 135t65 109t85.5 82.5t74.5 55t47.5 26.5q-4 5 -30.5 36t-48.5 60.5t-48 70.5t-41 85t-15 84q0 112 87 197.5t219 85.5q123 0 212 -81.5t89 -201.5q0 -54 -25.5 -108
t-56.5 -91.5t-77 -76t-68 -53t-48 -30.5l387 -503q41 47 97 161l102 -38q-65 -140 -131 -211v-9zM858 225l-377 494h-12q-19 -10 -43.5 -27t-58.5 -47.5t-61.5 -65t-46.5 -81t-19 -92.5q0 -126 91 -215t220 -89q171 0 307 109v14zM715 1141q0 71 -52.5 119.5t-125.5 48.5
q-72 0 -125.5 -49.5t-53.5 -118.5q0 -95 144 -262h12q28 17 56 38t64 55.5t58.5 79t22.5 89.5z" />
    <glyph glyph-name="quotesingle" unicode="'" horiz-adv-x="495" 
d="M258 944h-20q-21 59 -48 146q-47 154 -47 237q0 41 32 72t73 31t72.5 -31t31.5 -72q0 -83 -47 -237q-28 -91 -47 -146z" />
    <glyph glyph-name="parenleft" unicode="(" horiz-adv-x="573" 
d="M555 -338h-113q-35 49 -70 103.5t-82.5 148.5t-82 189t-59.5 219.5t-25 244.5v6q1 123 27 251t61 224t83.5 192.5t81.5 150t68 102.5h113q-12 -17 -32.5 -47t-72.5 -128t-92 -200t-73.5 -251.5t-34.5 -293.5v-4q0 -142 31 -288t76 -252.5t89.5 -192.5t75.5 -130z" />
    <glyph glyph-name="parenright" unicode=")" horiz-adv-x="573" 
d="M131 -338h-113q12 16 32.5 46t73 126.5t92.5 196.5t73 248t33 290v4q-1 105 -18 212.5t-44.5 195.5t-60 169.5t-64.5 142.5t-59 107t-44 70l-16 23h113q35 -50 68 -103t82 -149.5t84 -192.5t61 -224t27 -251v-6q0 -120 -25 -244.5t-60 -219.5t-82.5 -189t-82 -148.5
t-70.5 -103.5z" />
    <glyph glyph-name="asterisk" unicode="*" horiz-adv-x="1196" 
d="M129 817l299 172l100 31q-18 7 -55 18.5t-47 14.5l-297 172l57 98l289 -168l88 -74q-3 18 -11 54.5t-11 54.5v338h114v-338l-22 -109q15 11 47 38.5t41 35.5l289 168l57 -98l-297 -172l-104 -33q72 -23 102 -31l297 -172l-57 -100l-289 168l-86 73q3 -19 11 -55t11 -51
v-338h-114v338l20 104q-38 -35 -84 -71l-291 -168z" />
    <glyph glyph-name="plus" unicode="+" horiz-adv-x="1075" 
d="M92 541v110h385v389h121v-389h385v-110h-385v-394h-121v394h-385z" />
    <glyph glyph-name="comma" unicode="," horiz-adv-x="468" 
d="M133 90q0 43 29 74t69 31q48 0 77.5 -33t29.5 -88q0 -52 -19.5 -106t-48 -94.5t-56.5 -73t-48 -49.5l-19 -17l-55 61q99 96 133 197q-38 0 -65 29t-27 69z" />
    <glyph glyph-name="hyphen" unicode="-" horiz-adv-x="753" 
d="M113 438v111h528v-111h-528z" />
    <glyph glyph-name="period" unicode="." horiz-adv-x="471" 
d="M129 88q0 43 31 75t73 32q43 0 75 -32t32 -75q0 -42 -32 -73t-75 -31t-73.5 30.5t-30.5 73.5z" />
    <glyph glyph-name="slash" unicode="/" horiz-adv-x="817" 
d="M635 1413h141l-594 -1413h-141z" />
    <glyph glyph-name="zero" unicode="0" horiz-adv-x="1148" 
d="M575 1077q-155 0 -249 -143q-88 -133 -88 -342q0 -211 88 -350q94 -144 249 -144q154 0 248 144q88 139 88 350q0 209 -88 342q-94 143 -248 143zM578 1192q206 0 335 -176q123 -163 123 -424q0 -266 -123 -432q-129 -176 -335 -176q-213 0 -342 176q-123 166 -123 432
q0 261 123 424q129 176 342 176z" />
    <glyph glyph-name="one" unicode="1" horiz-adv-x="679" 
d="M354 1190h121v-1190h-121v942h-14q-77 -57 -139 -79.5t-129 -22.5v112q43 0 90.5 15.5t91 44.5t72 75.5t28.5 102.5z" />
    <glyph glyph-name="two" unicode="2" horiz-adv-x="1032" 
d="M225 829l-125 2q0 150 116.5 255.5t283.5 105.5t284 -105.5t117 -255.5q0 -55 -17.5 -103t-45 -84.5t-71 -71t-85 -59t-96.5 -52.5q-64 -32 -120.5 -66.5t-112 -77t-88 -88.5t-32.5 -88v-30h697v-111h-844v29q0 90 30 167.5t90 142t136.5 118t181.5 106.5
q128 66 190 123.5t62 142.5q0 105 -80 176.5t-196 71.5q-115 0 -195 -71.5t-80 -176.5z" />
    <glyph glyph-name="three" unicode="3" horiz-adv-x="1052" 
d="M498 -217q-171 0 -299 101.5t-148 252.5h127q19 -104 109.5 -171.5t212.5 -67.5q135 0 229 84.5t94 205.5q0 119 -90.5 206t-218.5 87h-141v111h125q119 0 202.5 70.5t83.5 171.5t-83.5 172t-202.5 71q-117 0 -200.5 -70.5t-84.5 -172.5l-123 40q17 135 134 226.5
t274 91.5q171 0 292 -103.5t121 -250.5q0 -86 -58.5 -164t-147.5 -129v-17q106 -58 175.5 -149t69.5 -193q0 -167 -132 -285t-320 -118z" />
    <glyph glyph-name="four" unicode="4" horiz-adv-x="1019" 
d="M0 227v84l631 891h153v-864h195v-111h-195v-424h-120v424h-664zM659 1051q-96 -135 -221 -313t-202 -289l-76 -111h504v713h-5z" />
    <glyph glyph-name="five" unicode="5" horiz-adv-x="1071" 
d="M92 172l123 21q1 -6 2.5 -16.5t9.5 -41.5t20.5 -58.5t37 -61.5t56.5 -58.5t81.5 -41.5t109.5 -17q61 0 111 17t83 43.5t57.5 63t37.5 71.5t21 74t10 64.5t2 49.5q0 36 -8.5 77.5t-31 88.5t-54.5 84.5t-85 62t-118 24.5q-58 0 -113 -26.5t-90 -61.5t-56.5 -64t-23.5 -40
l-145 2l72 743h698v-110h-586q-5 -45 -24 -213.5t-27 -259.5l6 6q55 58 130.5 100.5t164.5 42.5q94 0 169 -33t120.5 -82t75.5 -112.5t41.5 -119t11.5 -105.5q0 -31 -3 -64.5t-14 -85t-29.5 -97t-53 -93.5t-80 -83t-115 -57t-154.5 -22q-74 0 -137.5 18.5t-106.5 47t-78 68
t-55.5 75.5t-35 75.5t-20 63t-7.5 41.5z" />
    <glyph glyph-name="six" unicode="6" horiz-adv-x="1130" 
d="M584 805q-128 0 -218 -103.5t-90 -250.5q0 -146 90 -249.5t218 -103.5q129 0 219 103t90 250q0 148 -90 251t-219 103zM1001 1085l-110 -41q-40 112 -110.5 173t-188.5 61q-164 0 -259 -169.5t-95 -440.5h6q56 111 142.5 181.5t188.5 70.5q124 0 226 -64t159.5 -173
t57.5 -239q0 -192 -125.5 -326t-306.5 -134q-146 0 -252 82t-164 235q-57 159 -57 385q0 195 56.5 354.5t166 256t252.5 96.5q160 0 259.5 -80t153.5 -228z" />
    <glyph glyph-name="seven" unicode="7" horiz-adv-x="868" 
d="M365 -197h-123v7q0 712 442 1220v31h-684v110h858v-114q-10 -8 -28 -23.5t-69 -72t-97.5 -122t-103.5 -175t-98 -229.5t-69 -286.5t-28 -345.5z" />
    <glyph glyph-name="eight" unicode="8" horiz-adv-x="1085" 
d="M92 387q0 103 68.5 194t175.5 148v14q-91 53 -148 130t-57 165q0 147 121 251t289 104q171 0 292 -104t121 -251q0 -86 -58.5 -164t-147.5 -129v-16q106 -58 175.5 -149t69.5 -193q0 -167 -132 -285t-320 -118q-185 0 -317 118t-132 285zM219 389q0 -121 95 -206t229 -85
t228.5 85t94.5 206q0 119 -91.5 206t-219.5 87h-25q-131 -6 -221 -90.5t-90 -202.5zM258 1034q0 -101 83.5 -171t201.5 -70t201 70t83 171t-83.5 172.5t-200.5 71.5t-201 -71.5t-84 -172.5z" />
    <glyph glyph-name="nine" unicode="9" horiz-adv-x="1130" 
d="M547 371q128 0 217.5 103t89.5 251q0 146 -89.5 249t-217.5 103q-129 0 -219 -103t-90 -249q0 -148 90 -251t219 -103zM129 90l111 41q40 -112 110.5 -172.5t188.5 -60.5q164 0 259 169.5t95 440.5h-6q-56 -111 -143 -181.5t-189 -70.5q-124 0 -225.5 64t-159 172.5
t-57.5 238.5q0 192 125.5 326.5t306.5 134.5q146 0 252 -82.5t164 -235.5q57 -159 57 -385q0 -195 -56.5 -354.5t-166 -255.5t-252.5 -96q-302 0 -414 307z" />
    <glyph glyph-name="colon" unicode=":" horiz-adv-x="520" 
d="M164 88q0 43 31 75t73 32q43 0 75 -32t32 -75q0 -42 -32 -73t-75 -31t-73.5 30.5t-30.5 73.5zM164 887q0 43 30.5 74.5t73.5 31.5t75 -31.5t32 -74.5t-32 -74t-75 -31t-73.5 31t-30.5 74z" />
    <glyph glyph-name="semicolon" unicode=";" horiz-adv-x="520" 
d="M170 90q0 43 29 74t69 31q48 0 77.5 -33t29.5 -88q0 -52 -19.5 -106t-47.5 -94.5t-56.5 -73t-47.5 -49.5l-20 -17l-55 61q99 96 133 197q-38 0 -65 29t-27 69zM164 887q0 43 30.5 74.5t73.5 31.5t75 -31.5t32 -74.5t-32 -74t-75 -31t-73.5 31t-30.5 74z" />
    <glyph glyph-name="less" unicode="&#x3c;" horiz-adv-x="876" 
d="M772 12l-78 -80l-663 664l663 664l78 -80l-573 -555v-60z" />
    <glyph glyph-name="equal" unicode="=" horiz-adv-x="1015" 
d="M102 653v111h811v-111h-811zM102 346v111h811v-111h-811z" />
    <glyph glyph-name="greater" unicode="&#x3e;" horiz-adv-x="876" 
d="M182 -68l-78 80l574 553v60l-574 555l78 80l664 -664z" />
    <glyph glyph-name="question" unicode="?" horiz-adv-x="907" 
d="M459 406h-121v204q0 38 14 72t25 47t31 33l219 219q51 51 51 123q0 90 -65 150.5t-181 60.5q-110 0 -178 -61t-68 -150h-125q0 80 31.5 143.5t84.5 102.5t117.5 59.5t135.5 20.5q175 0 274 -90.5t99 -223.5q0 -123 -78 -201l-244 -249q-22 -22 -22 -76v-184zM297 84
q0 41 29.5 71.5t70.5 30.5t72 -30.5t31 -71.5t-30.5 -70.5t-72.5 -29.5q-41 0 -70.5 29.5t-29.5 70.5z" />
    <glyph glyph-name="at" unicode="@" horiz-adv-x="1798" 
d="M834 377q119 0 190.5 84t71.5 213q0 103 -50.5 175.5t-146.5 72.5q-120 0 -191 -84t-71 -215q0 -102 51 -174t146 -72zM1542 729q0 121 -45 228.5t-125 186.5t-195.5 125t-250.5 46q-182 0 -334.5 -88.5t-241 -241.5t-88.5 -336q0 -180 88.5 -331.5t241.5 -239.5t334 -88
q201 0 360 104l78 -82q-196 -135 -442 -135q-158 0 -302 61t-247.5 164t-164.5 246t-61 301q0 160 61 304.5t164.5 249t247.5 166t302 61.5t296 -58t233 -154.5t149.5 -224.5t54.5 -266q0 -211 -86.5 -337t-251.5 -126q-78 0 -138.5 34.5t-80.5 107.5h-15q-35 -46 -65 -73.5
t-79 -48t-110 -20.5q-138 0 -218.5 101t-80.5 251q0 179 100.5 296.5t272.5 117.5q162 0 246 -147h4l16 133h107l-66 -537q-2 -14 -2 -30q0 -38 33.5 -55t77.5 -17q114 0 168.5 92t54.5 260z" />
    <glyph glyph-name="A" unicode="A" horiz-adv-x="1222" 
d="M1192 0h-131l-143 420h-613l-143 -420h-131l479 1413h203zM608 1319l-264 -782h535l-265 782h-6z" />
    <glyph glyph-name="B" unicode="B" horiz-adv-x="1280" 
d="M1157 1049q0 -90 -51.5 -170.5t-130.5 -133.5v-22q94 -52 156.5 -143t62.5 -195q0 -161 -109.5 -273t-265.5 -112h-647v1413h614q154 0 262.5 -106.5t108.5 -257.5zM297 670v-553h500q118 0 193 79.5t75 198.5q0 113 -79.5 194t-188.5 81h-500zM297 1296v-510h467
q108 0 186 75t78 183q0 105 -75.5 178.5t-188.5 73.5h-467z" />
    <glyph glyph-name="C" unicode="C" horiz-adv-x="1353" 
d="M244 705q0 -135 36.5 -250t100.5 -195q123 -156 332 -156q161 0 264 95q111 102 156 293h127q-24 -116 -77 -213.5t-124 -163.5q-146 -131 -346 -131q-124 0 -233 50.5t-191 145.5q-174 200 -174 527q0 325 176 526q80 94 189 145.5t233 51.5q188 0 340 -130
q70 -63 123 -155.5t79 -202.5h-129q-50 183 -155 275q-108 92 -258 92q-207 0 -332 -158q-137 -170 -137 -446z" />
    <glyph glyph-name="D" unicode="D" horiz-adv-x="1384" 
d="M297 117h408q121 0 222.5 78.5t159.5 213.5t58 296q0 162 -58 297.5t-159.5 214.5t-222.5 79h-408v-1179zM731 0h-559v1413h559q147 0 272 -94.5t198 -257.5t73 -354t-73 -354t-198 -258t-272 -95z" />
    <glyph glyph-name="E" unicode="E" horiz-adv-x="1265" 
d="M1128 1413v-117h-831v-522h750v-117h-750v-540h872v-117h-997v1413h956z" />
    <glyph glyph-name="F" unicode="F" horiz-adv-x="1183" 
d="M1128 1413v-117h-831v-522h750v-117h-750v-657h-125v1413h956z" />
    <glyph glyph-name="G" unicode="G" horiz-adv-x="1404" 
d="M1128 0v248q-67 -117 -180 -191q-58 -38 -111 -55.5t-124 -17.5q-124 0 -233 50t-191 144q-174 203 -174 529q0 325 176 526q80 94 189 145.5t233 51.5q129 0 250 -63.5t199.5 -179.5t78.5 -253h-127q0 154 -119.5 264.5t-281.5 110.5q-96 0 -181 -42.5t-149 -119.5
q-139 -171 -139 -438q0 -274 139 -445q63 -77 148.5 -118.5t181.5 -41.5q153 0 280 136q133 139 144 366h-443v117h559v-723h-125z" />
    <glyph glyph-name="H" unicode="H" horiz-adv-x="1409" 
d="M297 0h-125v1413h125v-612h815v612h125v-1413h-125v684h-815v-684z" />
    <glyph glyph-name="I" unicode="I" horiz-adv-x="468" 
d="M172 0v1413h125v-1413h-125z" />
    <glyph glyph-name="J" unicode="J" horiz-adv-x="1050" 
d="M776 1413h125v-926q0 -252 -111 -377.5t-321 -125.5q-188 0 -296 98.5t-142 273.5l127 29q23 -133 98.5 -207t208.5 -74q163 0 237 98.5t74 284.5v926z" />
    <glyph glyph-name="K" unicode="K" horiz-adv-x="1255" 
d="M1059 0l-518 676h-127l-117 -111v-565h-125v1413h125v-680l717 680h176l-582 -553v-67l606 -793h-155z" />
    <glyph glyph-name="L" unicode="L" horiz-adv-x="1095" 
d="M297 1413v-1296h768v-117h-893v1413h125z" />
    <glyph glyph-name="M" unicode="M" horiz-adv-x="1634" 
d="M711 61l-414 1231v-1292h-125v1413h215l420 -1243h20l420 1243h215v-1413h-125v1292l-413 -1231h-213z" />
    <glyph glyph-name="N" unicode="N" horiz-adv-x="1437" 
d="M1141 1413h125v-1413h-226l-735 1325h-8v-1325h-125v1413h225l733 -1325h11v1325z" />
    <glyph glyph-name="O" unicode="O" horiz-adv-x="1419" 
d="M115 707q0 325 176 526q82 94 192 145.5t232 51.5q120 0 227.5 -51.5t187.5 -145.5q175 -200 175 -526q0 -329 -172 -529q-82 -94 -190 -144t-228 -50q-123 0 -233 50.5t-193 145.5q-174 200 -174 527zM244 707q0 -273 139 -441q63 -78 148 -120t180 -42t179.5 42
t147.5 120q138 171 138 441q0 267 -138 438q-63 79 -147.5 121.5t-179.5 42.5t-180 -43t-148 -121q-139 -168 -139 -438z" />
    <glyph glyph-name="P" unicode="P" horiz-adv-x="1288" 
d="M846 586h-549v-586h-125v1413h672q157 0 267 -119t110 -290q0 -178 -109.5 -298t-265.5 -120zM297 1296v-594h530q112 0 188.5 86.5t76.5 210.5q0 123 -77.5 210t-187.5 87h-530z" />
    <glyph glyph-name="Q" unicode="Q" horiz-adv-x="1415" 
d="M115 707q0 325 176 526q82 94 192 145.5t232 51.5q120 0 227.5 -51.5t187.5 -145.5q175 -200 175 -526q0 -329 -172 -529q-54 -60 -127 -110l176 -324l-109 -57l-178 327q-85 -30 -180 -30q-123 0 -233 50.5t-193 145.5q-174 200 -174 527zM244 707q0 -273 139 -441
q63 -78 148 -120t180 -42t179.5 42t147.5 120q138 171 138 441q0 267 -138 438q-63 79 -147.5 121.5t-179.5 42.5t-180 -43t-148 -121q-139 -168 -139 -438z" />
    <glyph glyph-name="R" unicode="R" horiz-adv-x="1351" 
d="M297 733h522q109 0 186.5 82t77.5 199q0 118 -77.5 200t-186.5 82h-522v-563zM297 616v-616h-125v1413h670q154 0 262 -116.5t108 -280.5q0 -135 -76 -241.5t-198 -141.5l338 -633h-141l-326 616h-512z" />
    <glyph glyph-name="S" unicode="S" horiz-adv-x="1300" 
d="M598 1430q216 0 355.5 -100t179.5 -300h-134q-30 138 -133 208.5t-266 70.5q-45 0 -92.5 -10.5t-94 -33.5t-83.5 -55t-59.5 -79t-22.5 -101q0 -40 15 -73.5t38 -56.5t60 -41t70 -28.5t80.5 -18.5t80 -11.5t78.5 -7.5q62 -5 113.5 -12t108 -21t101 -33.5t85.5 -50
t68.5 -68.5t43.5 -91.5t16 -117.5q0 -105 -38.5 -185.5t-108 -130t-160.5 -74.5t-201 -25q-157 0 -286.5 54t-216 162.5t-105.5 256.5h129q39 -172 163.5 -262.5t309.5 -90.5q80 0 146.5 15.5t121.5 49t86 94t31 143.5q0 61 -25 107t-63.5 74t-99 46t-117.5 26t-133 13
q-73 5 -139 16.5t-138 38t-123.5 65.5t-85.5 103.5t-34 146.5q0 85 42.5 159.5t111 123.5t154 77t171.5 28z" />
    <glyph glyph-name="T" unicode="T" horiz-adv-x="1243" 
d="M1182 1413v-117h-500v-1296h-125v1296h-496v117h1121z" />
    <glyph glyph-name="U" unicode="U" horiz-adv-x="1368" 
d="M684 104q95 0 168 23t119.5 63t76 99t41 124t11.5 146v854h125v-878q0 -121 -30 -218.5t-92.5 -173.5t-169 -117.5t-249.5 -41.5t-249.5 41.5t-169 117.5t-92.5 173.5t-30 218.5v878h125v-854q0 -81 11.5 -146t41 -124t76 -99t119.5 -63t168 -23z" />
    <glyph glyph-name="V" unicode="V" horiz-adv-x="1222" 
d="M1061 1413h131l-479 -1413h-203l-479 1413h131l442 -1321h14z" />
    <glyph glyph-name="W" unicode="W" horiz-adv-x="1722" 
d="M872 1257h-22l-287 -1257h-186l-326 1413h129l289 -1282l279 1221h227l278 -1221l289 1282h129l-325 -1413h-187z" />
    <glyph glyph-name="X" unicode="X" horiz-adv-x="1302" 
d="M1235 1413l-487 -655v-66l514 -692h-154l-440 602h-35l-440 -602h-152l514 692v66l-487 655h153l416 -569h29l415 569h154z" />
    <glyph glyph-name="Y" unicode="Y" horiz-adv-x="1136" 
d="M631 0h-125v659l-490 754h146l393 -616h27l393 616h145l-489 -754v-659z" />
    <glyph glyph-name="Z" unicode="Z" horiz-adv-x="1267" 
d="M1184 0h-1137v125l952 1157v14h-886v117h1048v-125l-952 -1157v-14h975v-117z" />
    <glyph glyph-name="bracketleft" unicode="[" horiz-adv-x="643" 
d="M584 1487v-111h-211v-1597h211v-111h-332v1819h332z" />
    <glyph glyph-name="backslash" unicode="\" horiz-adv-x="817" 
d="M41 1413h141l594 -1413h-141z" />
    <glyph glyph-name="bracketright" unicode="]" horiz-adv-x="643" 
d="M59 1376v111h332v-1819h-332v111h211v1597h-211z" />
    <glyph glyph-name="asciicircum" unicode="^" horiz-adv-x="966" 
d="M119 870l266 535h197l266 -535h-164l-201 437l-200 -437h-164z" />
    <glyph glyph-name="underscore" unicode="_" horiz-adv-x="950" 
d="M57 -111v111h836v-111h-836z" />
    <glyph glyph-name="grave" unicode="`" horiz-adv-x="636" 
d="M471 1159l-360 207l79 123l336 -244z" />
    <glyph glyph-name="a" unicode="a" horiz-adv-x="1146" 
d="M270 745h-120q0 21 6.5 51.5t33 79t68.5 87t124.5 67.5t190.5 29q355 0 355 -309v-594q0 -31 21 -49.5t46 -18.5q48 0 66 45l94 -45q-17 -38 -56 -71t-100 -33q-71 0 -116 47t-52 106h-18q-79 -86 -174.5 -119.5t-159.5 -33.5q-24 0 -48.5 1.5t-64.5 9t-73.5 20t-71 37
t-63.5 57t-43 84t-17 114.5q0 244 361 318l348 71v45q0 37 -4 63.5t-18.5 54.5t-40 45.5t-70 28.5t-107.5 11q-72 0 -128 -16.5t-86.5 -40t-50.5 -53t-26 -51t-6 -38.5zM807 354v232l-303 -66q-44 -10 -74 -18t-72.5 -26t-69 -38.5t-46 -54t-19.5 -74.5q0 -106 65 -158.5
t185 -52.5h12q69 0 142.5 32t126.5 92.5t53 131.5z" />
    <glyph glyph-name="b" unicode="b" horiz-adv-x="1218" 
d="M160 0v1425h121v-577h12q71 101 160 156t190 55q128 0 235.5 -72.5t169.5 -196.5t62 -270q0 -145 -62 -268.5t-169.5 -195.5t-235.5 -72q-211 0 -350 198h-12v-182h-121zM281 522v-18q5 -183 99 -294.5t255 -111.5q148 0 249 122.5t101 299.5q0 179 -101 301.5
t-249 122.5q-166 0 -260 -115.5t-94 -306.5z" />
    <glyph glyph-name="c" unicode="c" horiz-adv-x="1146" 
d="M233 520q0 -186 103 -304t254 -118q108 0 195 65t128 179h131q-47 -163 -171.5 -260.5t-282.5 -97.5q-98 0 -186.5 39.5t-153.5 108.5t-103 170t-38 218t38 218.5t103 171t153.5 109.5t186.5 40q170 0 300.5 -113.5t166.5 -298.5h-129q-34 136 -126.5 216.5t-211.5 80.5
q-150 0 -253.5 -119t-103.5 -305z" />
    <glyph glyph-name="d" unicode="d" horiz-adv-x="1218" 
d="M1059 1425v-1425h-121v182h-12q-139 -198 -351 -198q-128 0 -235 72t-169 195.5t-62 268.5q0 146 62 270t169 196.5t235 72.5q101 0 190.5 -55.5t160.5 -155.5h12v577h121zM938 504v18q0 191 -94 306.5t-260 115.5q-148 0 -249.5 -123t-101.5 -301q0 -177 101.5 -299.5
t249.5 -122.5q161 0 255 111.5t99 294.5z" />
    <glyph glyph-name="e" unicode="e" horiz-adv-x="1161" 
d="M598 -16q-100 0 -189.5 39.5t-155.5 108.5t-105 170t-39 218q0 156 66.5 280t177.5 191.5t245 67.5q203 0 334 -150.5t131 -388.5v-33h-825q4 -170 113 -279.5t263 -109.5q110 0 191.5 62t126.5 172l108 -49q-60 -139 -178 -219t-264 -80zM596 944q-139 0 -239 -96.5
t-119 -253.5h696q-19 158 -111.5 254t-226.5 96z" />
    <glyph glyph-name="f" unicode="f" horiz-adv-x="749" 
d="M287 1038v117q0 128 89 217.5t216 89.5q143 0 237 -112l-104 -58q-53 56 -131 56t-132 -55t-54 -132v-123h323v-110h-323v-928h-121v928h-246v110h246z" />
    <glyph glyph-name="g" unicode="g" horiz-adv-x="1161" 
d="M883 465v135q0 85 -28 152.5t-74.5 108.5t-104 62t-119.5 21q-136 0 -230 -118.5t-94 -286.5t94 -287t230 -119q61 0 118 21t104 60.5t75.5 104.5t28.5 146zM152 -176l108 53q50 -90 137.5 -136t182.5 -46q157 0 230 79.5t73 209.5v204q-54 -88 -133.5 -129t-194.5 -41
q-122 0 -224.5 69t-162 188.5t-59.5 261.5q0 219 130 370.5t316 151.5q194 0 317 -170h11v149h121v-1069q0 -79 -25 -147.5t-74.5 -123.5t-133 -86.5t-191.5 -31.5q-126 0 -244 61.5t-184 182.5z" />
    <glyph glyph-name="h" unicode="h" horiz-adv-x="1165" 
d="M281 0h-121v1425h121v-614h16q63 112 162 180t219 68q68 0 122.5 -15t88 -37t58.5 -54.5t36.5 -59t18 -59t7.5 -47t1 -29.5v-758h-121v735q0 12 -1.5 24.5t-7 40t-20.5 50t-37.5 45.5t-63.5 36t-93 13q-67 0 -134.5 -34t-124 -95t-91.5 -156t-35 -206v-453z" />
    <glyph glyph-name="i" unicode="i" horiz-adv-x="434" 
d="M158 0v1038h121v-1038h-121zM125 1315q0 37 27 64.5t65 27.5q37 0 64.5 -27.5t27.5 -64.5q0 -38 -27.5 -65t-64.5 -27q-38 0 -65 27t-27 65z" />
    <glyph glyph-name="j" unicode="j" horiz-adv-x="434" 
d="M279 -92q0 -64 -21 -121.5t-61.5 -104.5t-109.5 -74.5t-157 -27.5h-12v115h12q112 0 170 60.5t58 146.5v1136h121v-1130zM125 1315q0 37 27 64.5t65 27.5q37 0 64.5 -27.5t27.5 -64.5q0 -38 -27.5 -65t-64.5 -27q-38 0 -65 27t-27 65z" />
    <glyph glyph-name="k" unicode="k" horiz-adv-x="1089" 
d="M281 0h-121v1425h121v-772h43l460 385h179l-379 -319v-39l469 -680h-144l-415 604h-50l-163 -137v-467z" />
    <glyph glyph-name="l" unicode="l" horiz-adv-x="440" 
d="M160 0v1425h121v-1425h-121z" />
    <glyph glyph-name="m" unicode="m" horiz-adv-x="1851" 
d="M279 0h-121v1038h121v-227h16q61 112 157.5 180t213.5 68q71 0 127.5 -18t89 -43.5t55.5 -61.5t32 -65t13 -60h21q61 113 157 180.5t213 67.5q65 0 118 -15t85.5 -37.5t57 -54.5t35.5 -58.5t17.5 -59t7.5 -47t1 -29.5v-758h-121v735q0 12 -1.5 24.5t-6.5 40t-19.5 50
t-36.5 45.5t-61.5 36t-89.5 13q-63 0 -127 -32.5t-118 -90.5t-89 -149t-39 -197v-475h-121v735q0 12 -1.5 24.5t-6.5 40t-19.5 50t-36.5 45.5t-61.5 36t-89.5 13q-65 0 -130 -34t-119.5 -95t-88.5 -156t-34 -206v-453z" />
    <glyph glyph-name="n" unicode="n" horiz-adv-x="1163" 
d="M279 0h-121v1038h121v-227h16q63 112 162 180t219 68q68 0 122.5 -15t88 -37t58.5 -54.5t36.5 -59t18 -59t7.5 -47t1 -29.5v-758h-121v735q0 12 -1.5 24.5t-7 40t-20.5 50t-37.5 45.5t-63.5 36t-93 13q-67 0 -134.5 -34t-124 -95t-91.5 -156t-35 -206v-453z" />
    <glyph glyph-name="o" unicode="o" horiz-adv-x="1191" 
d="M109 520q0 156 66.5 280t177.5 191.5t245 67.5q98 0 187 -40t154.5 -109.5t104.5 -171t39 -218.5t-39 -218t-104.5 -170t-154.5 -108.5t-187 -39.5q-100 0 -189.5 39.5t-155.5 108.5t-105 170t-39 218zM233 520q0 -185 105.5 -303.5t257.5 -118.5t257 118t105 304
t-105 305t-257 119t-257.5 -119t-105.5 -305z" />
    <glyph glyph-name="p" unicode="p" horiz-adv-x="1222" 
d="M164 -371v1409h121v-190h12q71 101 160 156t190 55q128 0 235.5 -72.5t169.5 -196.5t62 -270q0 -145 -62 -268.5t-169.5 -195.5t-235.5 -72q-211 0 -350 198h-12v-553h-121zM285 522v-18q5 -183 99 -294.5t255 -111.5q148 0 249 122.5t101 299.5q0 179 -101 301.5
t-249 122.5q-166 0 -260 -115.5t-94 -306.5z" />
    <glyph glyph-name="q" unicode="q" horiz-adv-x="1222" 
d="M1059 1038v-1409h-121v553h-12q-139 -198 -351 -198q-128 0 -235 72t-169 195.5t-62 268.5q0 146 62 270t169 196.5t235 72.5q101 0 190.5 -55.5t160.5 -155.5h12v190h121zM938 504v18q0 191 -94 306.5t-260 115.5q-148 0 -249.5 -123t-101.5 -301q0 -177 101.5 -299.5
t249.5 -122.5q161 0 255 111.5t99 294.5z" />
    <glyph glyph-name="r" unicode="r" horiz-adv-x="782" 
d="M279 0h-121v1038h121v-241h16q63 112 162 179.5t219 67.5q7 0 22.5 -1t22.5 -1v-118q-27 6 -57 6q-53 0 -107.5 -21t-104 -63.5t-88.5 -100.5t-62 -137.5t-23 -169.5v-438z" />
    <glyph glyph-name="s" unicode="s" horiz-adv-x="1075" 
d="M932 729h-123q-22 113 -89 164t-196 51q-112 0 -187 -42.5t-75 -133.5q0 -30 13 -54.5t31.5 -41t50.5 -30.5t57 -22t64 -14.5t59.5 -9t54.5 -6.5q53 -6 93 -13t91 -20.5t87 -35t69 -52t50 -76t17 -102.5q0 -53 -23.5 -104.5t-72 -98.5t-136 -75.5t-202.5 -28.5
q-111 0 -202 32.5t-146 84.5t-86 112t-33 121h125q3 -40 25.5 -80t62.5 -76t106.5 -58t147.5 -22q85 0 148 18.5t96.5 48.5t49 61.5t15.5 64.5q0 43 -13.5 72.5t-38 48t-69 31.5t-97 22t-131.5 20h-3q-65 9 -112.5 19.5t-102.5 32.5t-89.5 51t-57.5 76.5t-23 109.5
q0 12 2 28t11 45t23.5 55.5t44 56t69 51t101 35.5t136.5 14q78 0 142 -17t105 -40.5t72.5 -60t46.5 -64.5t25.5 -65.5t12.5 -51t4 -31.5z" />
    <glyph glyph-name="t" unicode="t" horiz-adv-x="815" 
d="M258 248v680h-217v110h217v273h121v-273h307v-110h-307v-686q0 -60 41.5 -102t101.5 -42q41 0 75.5 21.5t51.5 56.5l105 -55q-34 -62 -96.5 -99.5t-135.5 -37.5q-109 0 -186.5 77.5t-77.5 186.5z" />
    <glyph glyph-name="u" unicode="u" horiz-adv-x="1163" 
d="M885 1038h121v-1038h-121v233h-17q-63 -113 -162 -181t-219 -68q-68 0 -122 15t-88 37t-58.5 54.5t-36 59t-18 59t-7.5 47t-1 29.5v753h120v-731q0 -15 1.5 -32t14 -51.5t34 -60t67 -45.5t107.5 -20q53 0 107.5 21t104 63.5t88.5 100.5t62 137.5t23 169.5v448z" />
    <glyph glyph-name="v" unicode="v" horiz-adv-x="1073" 
d="M887 1038h129l-383 -1038h-193l-383 1038h129l344 -944h13z" />
    <glyph glyph-name="w" unicode="w" horiz-adv-x="1568" 
d="M784 874l-245 -874h-193l-280 1038h124l248 -934h11l262 926h147l262 -926h10l248 934h125l-280 -1038h-193z" />
    <glyph glyph-name="x" unicode="x" horiz-adv-x="1019" 
d="M823 0l-307 446h-12l-307 -446h-144l375 528v25l-352 485h143l285 -403h12l285 403h143l-352 -485v-25l375 -528h-144z" />
    <glyph glyph-name="y" unicode="y" horiz-adv-x="1015" 
d="M180 -420q-55 0 -104 14l28 113q37 -12 74 -12q74 0 121.5 29.5t65.5 78.5l90 236l-414 999h131l334 -807h26l308 807h129l-490 -1271q-33 -85 -108 -136t-191 -51z" />
    <glyph glyph-name="z" unicode="z" horiz-adv-x="985" 
d="M918 0h-850v111l643 811v6h-592v110h749v-108l-645 -813v-6h695v-111z" />
    <glyph glyph-name="braceleft" unicode="{" horiz-adv-x="552" 
d="M344 348v-424q0 -36 1 -56t5.5 -42.5t15 -32.5t27.5 -10h70v-115h-70q-62 0 -101.5 41.5t-55 105t-15.5 150.5v359q0 135 -151 198v129q151 50 151 201v379q0 139 36.5 197.5t133.5 58.5h72v-115h-70q-34 0 -41.5 -40t-7.5 -146v-359q0 -184 -125 -243q125 -70 125 -236z
" />
    <glyph glyph-name="bar" unicode="|" horiz-adv-x="626" 
d="M375 1610v-1819h-123v1819h123z" />
    <glyph glyph-name="braceright" unicode="}" horiz-adv-x="552" 
d="M209 -76v424q0 166 125 236q-125 59 -125 243v359q0 106 -7.5 146t-41.5 40h-70v115h72q97 0 133.5 -58.5t36.5 -197.5v-379q0 -151 151 -201v-129q-151 -63 -151 -198v-359q0 -87 -15.5 -150.5t-55 -105t-101.5 -41.5h-70v115h70q17 0 27.5 10t15 32.5t5.5 42.5t1 56z
" />
    <glyph glyph-name="asciitilde" unicode="~" horiz-adv-x="1034" 
d="M373 571q-87 0 -201 -133l-90 78q92 101 157.5 135.5t125.5 34.5q45 0 83 -13.5t63 -32.5t48 -38t49 -32.5t54 -14.5q86 0 200 133l90 -78q-93 -101 -157.5 -135.5t-124.5 -34.5q-45 0 -83 13.5t-63 33t-47.5 38.5t-48.5 32.5t-55 13.5z" />
    <glyph glyph-name="uni00A0" unicode="&#xa0;" horiz-adv-x="448" 
 />
    <glyph glyph-name="exclamdown" unicode="&#xa1;" horiz-adv-x="585" 
d="M303 598l53 -932q0 -38 -27 -65t-65 -27t-65 27t-27 65l53 932h78zM164 918q0 41 29.5 71.5t70.5 30.5t72 -30.5t31 -71.5t-31 -71t-72 -30t-70.5 30t-29.5 71z" />
    <glyph glyph-name="cent" unicode="&#xa2;" horiz-adv-x="980" 
d="M528 0h-100v162q-144 19 -238 135t-94 287t94 287t238 137v163h100v-163q118 -15 207 -102.5t115 -219.5h-127q-22 82 -74 137t-121 68v-615q61 12 110 55t75 111h127q-33 -117 -117.5 -192t-194.5 -90v-160zM219 578q0 -115 59 -196.5t150 -102.5v612
q-93 -21 -151 -105.5t-58 -207.5z" />
    <glyph glyph-name="sterling" unicode="&#xa3;" horiz-adv-x="1196" 
d="M844 545h-424q0 -14 7 -58.5t7 -74.5q0 -129 -110 -232q57 17 84 17q86 0 192.5 -40t175.5 -40t111.5 41t42.5 102h121q0 -109 -75.5 -184.5t-182.5 -75.5q-70 0 -134 23t-125.5 46t-123.5 23q-48 0 -91.5 -12.5t-70.5 -27.5t-80 -48l-8 -4l-58 86q89 64 150 156t61 207
q0 47 -12 96h-199v102h185q-7 41 -17.5 91.5t-15 80.5t-4.5 66q0 73 34 133t88 97t116.5 57t123.5 20q76 0 139.5 -23.5t102 -58t65.5 -75t37.5 -72.5t10.5 -52h-123q0 6 -7 22.5t-24.5 41.5t-42.5 47.5t-67.5 38.5t-92.5 16q-86 0 -161.5 -58t-75.5 -153q0 -20 1 -35
t3.5 -36.5t4.5 -35t8.5 -50t10.5 -62.5h443v-102z" />
    <glyph glyph-name="currency" unicode="&#xa4;" horiz-adv-x="1085" 
d="M236 797l-117 112l88 88l115 -114q99 73 223 73q120 0 219 -73l115 114l88 -88l-119 -112q67 -92 67 -207q0 -117 -69 -215l121 -113l-88 -88l-119 115q-96 -68 -215 -68q-124 0 -219 70l-119 -117l-88 88l121 113q-70 95 -70 215q0 112 66 207zM287 586q0 -106 75 -181
t181 -75t181 75t75 181t-75 181t-181 75t-181 -75t-75 -181z" />
    <glyph glyph-name="yen" unicode="&#xa5;" horiz-adv-x="1163" 
d="M262 483v103h209l-365 585h140l338 -571l338 571h139l-365 -585h209v-103h-260v-143h260v-102h-260v-238h-123v238h-260v102h260v143h-260z" />
    <glyph glyph-name="brokenbar" unicode="&#xa6;" horiz-adv-x="626" 
d="M375 1610v-715h-123v715h123zM375 506v-715h-123v715h123z" />
    <glyph glyph-name="section" unicode="&#xa7;" horiz-adv-x="966" 
d="M621 322h18q62 30 92.5 70.5t30.5 101.5q0 80 -105 159l-311 250h-18q-62 -30 -92.5 -70.5t-30.5 -101.5q0 -37 27 -77.5t44.5 -56t32.5 -26.5zM80 743q0 144 188 232q-80 84 -80 153q0 86 85.5 146.5t207.5 60.5q123 0 210 -60.5t87 -146.5h-125q0 38 -50.5 65.5
t-121.5 27.5q-73 0 -121.5 -28t-48.5 -77q0 -38 84 -106l338 -271q154 -121 154 -258q0 -145 -191 -233q82 -82 82 -152q0 -86 -85.5 -146.5t-207.5 -60.5q-123 0 -210 60.5t-87 146.5h125q0 -38 50.5 -65t121.5 -27q74 0 122 27.5t48 77.5q0 38 -84 106l-338 270
q-153 120 -153 258z" />
    <glyph glyph-name="dieresis" unicode="&#xa8;" horiz-adv-x="790" 
d="M111 1315q0 37 27 64.5t65 27.5q37 0 64.5 -27.5t27.5 -64.5q0 -38 -27.5 -65t-64.5 -27q-38 0 -65 27t-27 65zM496 1315q0 37 27 64.5t65 27.5q37 0 64.5 -27.5t27.5 -64.5q0 -38 -27.5 -65t-64.5 -27q-38 0 -65 27t-27 65z" />
    <glyph glyph-name="copyright" unicode="&#xa9;" horiz-adv-x="1114" 
d="M733 621l84 -25q-27 -86 -87.5 -134t-147.5 -48q-110 0 -185 82t-75 211q0 128 75.5 210t184.5 82q85 0 146.5 -49t88.5 -135l-84 -24q-17 58 -56.5 88t-94.5 30q-72 0 -120 -55.5t-48 -146.5q0 -92 48 -147.5t120 -55.5q116 0 151 117zM182 705q0 -164 118 -282
t282 -118t282.5 118t118.5 282t-118.5 282.5t-282.5 118.5t-282 -118.5t-118 -282.5zM92 705q0 133 65.5 246t178.5 179t246 66t246 -66t179 -179t66 -246t-66 -246t-179 -178.5t-246 -65.5q-99 0 -190 39t-156.5 104.5t-104.5 156.5t-39 190z" />
    <glyph glyph-name="ordfeminine" unicode="&#xaa;" horiz-adv-x="716" 
d="M645 946l76 -39q-48 -67 -123 -67q-87 0 -109 86q-89 -86 -192 -86q-16 0 -35 2t-51 13t-56.5 29t-43 54.5t-19.5 85.5q0 40 16.5 70t48.5 50t63.5 31.5t76.5 22.5l166 39v14q0 14 -3.5 26.5t-14 28t-34.5 24.5t-59 9q-73 0 -106 -29t-33 -59h-92q0 13 3.5 30.5t18 45
t37.5 49.5t67.5 38t102.5 16q201 0 201 -170v-265q0 -65 49 -65q29 0 45 16zM463 1155l-146 -35q-63 -14 -98 -35t-35 -57q1 -32 15.5 -53.5t37 -30t37.5 -11.5t29 -3q28 0 62.5 10.5t66 40.5t31.5 72v102z" />
    <glyph glyph-name="guillemotleft" unicode="&#xab;" horiz-adv-x="999" 
d="M436 920l-293 -338v-25l293 -338l-82 -78l-323 400v57l323 399zM846 920l-293 -338v-25l293 -338l-82 -78l-324 400v57l324 399z" />
    <glyph glyph-name="logicalnot" unicode="&#xac;" horiz-adv-x="999" 
d="M92 541v110h795v-370h-121v260h-674z" />
    <glyph glyph-name="uni00AD" unicode="&#xad;" horiz-adv-x="753" 
d="M113 438v111h528v-111h-528z" />
    <glyph glyph-name="registered" unicode="&#xae;" horiz-adv-x="1114" 
d="M797 836q0 -52 -32.5 -94.5t-84.5 -55.5l133 -250h-102l-129 238h-101v-238h-92v559h244q67 0 115.5 -47t48.5 -112zM481 909v-149h135q39 0 64 21.5t25 52.5q0 33 -25 54t-64 21h-135zM92 705q0 133 65.5 246t178.5 179t246 66t246 -66t179 -179t66 -246t-66 -246
t-179 -178.5t-246 -65.5q-99 0 -190 39t-156.5 104.5t-104.5 156.5t-39 190zM182 705q0 -164 118 -282t282 -118t282.5 118t118.5 282t-118.5 282.5t-282.5 118.5t-282 -118.5t-118 -282.5z" />
    <glyph glyph-name="macron" unicode="&#xaf;" horiz-adv-x="770" 
d="M111 1262v110h548v-110h-548z" />
    <glyph glyph-name="degree" unicode="&#xb0;" horiz-adv-x="612" 
d="M78 1200q0 97 66 163.5t163 66.5q95 0 161.5 -66.5t66.5 -163.5q0 -95 -66.5 -161t-161.5 -66q-97 0 -163 66t-66 161zM172 1200q0 -54 39 -93.5t96 -39.5q55 0 94 39.5t39 93.5q0 56 -39 95.5t-94 39.5q-57 0 -96 -39.5t-39 -95.5z" />
    <glyph glyph-name="plusminus" unicode="&#xb1;" horiz-adv-x="1024" 
d="M92 614v111h361v365h120v-365h359v-111h-359v-368h-120v368h-361zM96 16v111h836v-111h-836z" />
    <glyph glyph-name="twosuperior" unicode="&#xb2;" horiz-adv-x="567" 
d="M184 920h301v-86h-403v61q0 43 58 105.5t143 107.5q47 26 73.5 53t26.5 68q0 43 -28.5 72.5t-69.5 29.5t-69 -29.5t-28 -72.5h-96q0 81 56.5 138.5t134.5 57.5q82 0 139 -57t57 -139q0 -25 -6.5 -47.5t-14 -39.5t-26 -35.5t-30 -29t-39 -28t-40 -25t-44.5 -25.5
q-36 -20 -59.5 -39.5t-29.5 -28t-6 -11.5z" />
    <glyph glyph-name="threesuperior" unicode="&#xb3;" horiz-adv-x="573" 
d="M242 1090v86h34q35 0 59.5 21.5t24.5 51.5q0 28 -24.5 50t-59.5 22t-60.5 -22t-25.5 -50h-94q0 77 55 121.5t128 44.5q72 0 124 -46t52 -112q0 -46 -21 -72t-65 -52q49 -27 75.5 -59.5t26.5 -84.5q0 -73 -57.5 -124.5t-139.5 -51.5q-80 0 -136 52t-56 132h94
q0 -36 29.5 -63t70.5 -27t71 27t30 63q0 37 -30 65t-71 28h-34z" />
    <glyph glyph-name="acute" unicode="&#xb4;" horiz-adv-x="636" 
d="M526 1366l-360 -207l-55 86l335 244z" />
    <glyph glyph-name="mu" unicode="&#xb5;" horiz-adv-x="1150" 
d="M602 -16q-45 0 -74 3.5t-70 16t-83 42.5t-90 79v-487h-121v1400h121v-524q0 -114 21.5 -195t63 -127t95 -67t123.5 -21q132 0 208 136t76 368v430h121v-1038h-121v190v-2q-49 -101 -120.5 -152.5t-149.5 -51.5z" />
    <glyph glyph-name="paragraph" unicode="&#xb6;" horiz-adv-x="1220" 
d="M1118 1303h-164v-1575h-120v1575h-265v-1575h-120v960q-149 0 -254 106t-105 255q0 150 105 257t254 107h669v-110z" />
    <glyph glyph-name="periodcentered" unicode="&#xb7;" horiz-adv-x="579" 
d="M184 686q0 43 31 75t74 32t74.5 -32t31.5 -75t-31.5 -73.5t-74.5 -30.5t-74 30.5t-31 73.5z" />
    <glyph glyph-name="cedilla" unicode="&#xb8;" horiz-adv-x="591" 
d="M236 0h116v-88q59 -17 94 -62.5t35 -99.5q0 -75 -56.5 -128.5t-135.5 -53.5q-71 0 -117.5 34.5t-60.5 71.5l106 52q25 -48 70 -48q29 0 50 20t21 52q0 82 -122 82v168z" />
    <glyph glyph-name="onesuperior" unicode="&#xb9;" horiz-adv-x="403" 
d="M41 1223v82q48 0 96.5 33.5t48.5 74.5h90v-579h-94v444q-4 -3 -27.5 -17.5t-34 -19.5t-33 -11.5t-46.5 -6.5z" />
    <glyph glyph-name="ordmasculine" unicode="&#xba;" horiz-adv-x="718" 
d="M92 1135q0 129 78 212t192 83q110 0 187.5 -83.5t77.5 -211.5q0 -129 -77.5 -212t-187.5 -83q-114 0 -192 82.5t-78 212.5zM184 1130q0 -89 51 -145.5t123 -56.5t123 56.5t51 145.5q0 93 -50.5 151t-123.5 58t-123.5 -58t-50.5 -151z" />
    <glyph glyph-name="guillemotright" unicode="&#xbb;" horiz-adv-x="999" 
d="M856 582l-293 338l82 77l324 -399v-57l-324 -400l-82 78l293 338v25zM446 582l-292 338l82 77l323 -399v-57l-323 -400l-82 78l292 338v25z" />
    <glyph glyph-name="onequarter" unicode="&#xbc;" 
d="M1135 0h-93v147h-282v70l297 377h78v-361h88v-86h-88v-147zM868 233h174v220zM190 1223v82q48 0 97 33.5t49 74.5h90v-579h-94v444q-7 -4 -22.5 -14t-25.5 -15.5t-25.5 -12.5t-32.5 -10t-36 -3zM1026 1413h117l-840 -1413h-117z" />
    <glyph glyph-name="onehalf" unicode="&#xbd;" 
d="M936 88h301v-86h-403v61q0 44 57.5 106t142.5 107q47 26 74 53t27 68q0 43 -29 73t-70 30t-68.5 -30t-27.5 -73h-96q0 82 56 139.5t134 57.5q82 0 139.5 -57.5t57.5 -139.5q0 -34 -12.5 -64.5t-26.5 -49.5t-48.5 -44t-51 -35t-62.5 -36q-36 -20 -59 -40t-29 -28.5
t-6 -11.5zM1026 1413h117l-840 -1413h-117zM190 1223v82q48 0 97 33.5t49 74.5h90v-579h-94v444q-7 -4 -22.5 -14t-25.5 -15.5t-25.5 -12.5t-32.5 -10t-36 -3z" />
    <glyph glyph-name="threequarters" unicode="&#xbe;" 
d="M352 1104v86h35q35 0 59.5 22t24.5 52q0 28 -24.5 49.5t-59.5 21.5t-60.5 -21.5t-25.5 -49.5h-94q0 77 54.5 121.5t127.5 44.5q72 0 124 -46t52 -112q0 -46 -21 -72.5t-65 -52.5q50 -27 76.5 -59t26.5 -84q0 -73 -57.5 -125t-139.5 -52q-80 0 -136 52.5t-56 132.5h94
q0 -36 29.5 -63t70.5 -27t70.5 27t29.5 63q0 37 -29.5 64.5t-70.5 27.5h-35zM1116 0h-92v147h-283v70l297 377h78v-361h88v-86h-88v-147zM850 233h174v220zM1049 1413h116l-839 -1413h-117z" />
    <glyph glyph-name="questiondown" unicode="&#xbf;" horiz-adv-x="907" 
d="M449 592h120v-205q0 -30 -6.5 -54.5t-19.5 -44.5t-20.5 -28.5t-22.5 -23.5l-219 -220q-52 -52 -52 -122q0 -90 65 -150.5t181 -60.5q110 0 178 61t68 150h125q0 -80 -31.5 -143.5t-84.5 -102.5t-117.5 -59.5t-135.5 -20.5q-176 0 -274.5 90t-98.5 223q0 123 78 201
l244 250q23 23 23 76v184zM410 911q0 42 29.5 72.5t70.5 30.5t71.5 -31t30.5 -72t-30.5 -70.5t-71.5 -29.5t-70.5 29.5t-29.5 70.5z" />
    <glyph glyph-name="Agrave" unicode="&#xc0;" horiz-adv-x="1222" 
d="M1192 0h-131l-143 420h-613l-143 -420h-131l479 1413h203zM608 1319l-264 -782h535l-265 782h-6zM715 1524l-398 164l64 137l377 -205z" />
    <glyph glyph-name="Aacute" unicode="&#xc1;" horiz-adv-x="1222" 
d="M1192 0h-131l-143 420h-613l-143 -420h-131l479 1413h203zM608 1319l-264 -782h535l-265 782h-6zM909 1688l-397 -164l-43 96l377 205z" />
    <glyph glyph-name="Acircumflex" unicode="&#xc2;" horiz-adv-x="1222" 
d="M1192 0h-131l-143 420h-613l-143 -420h-131l479 1413h203zM608 1319l-264 -782h535l-265 782h-6zM559 1841h103l264 -211l-84 -96l-232 186l-231 -186l-84 96z" />
    <glyph glyph-name="Atilde" unicode="&#xc3;" horiz-adv-x="1222" 
d="M1192 0h-131l-143 420h-613l-143 -420h-131l479 1413h203zM608 1319l-264 -782h535l-265 782h-6zM285 1585v43q0 78 55 130t131 52q49 0 92.5 -19.5t68.5 -42.5t52 -42.5t47 -19.5q28 0 46 16t18 45v43h129v-43q0 -78 -55 -130t-132 -52q-49 0 -92.5 19.5t-68.5 43
t-52 43t-47 19.5q-27 0 -45 -16t-18 -46v-43h-129z" />
    <glyph glyph-name="Adieresis" unicode="&#xc4;" horiz-adv-x="1222" 
d="M1192 0h-131l-143 420h-613l-143 -420h-131l479 1413h203zM608 1319l-264 -782h535l-265 782h-6zM315 1688q0 40 28.5 69t68.5 29t69 -29t29 -69t-29 -68.5t-69 -28.5t-68.5 28.5t-28.5 68.5zM711 1688q0 40 28 69t68 29t69 -29t29 -69t-29 -68.5t-69 -28.5t-68 28.5
t-28 68.5z" />
    <glyph glyph-name="Aring" unicode="&#xc5;" horiz-adv-x="1222" 
d="M1192 0h-131l-143 420h-613l-143 -420h-131l479 1413h203zM608 1319l-264 -782h535l-265 782h-6zM395 1688q0 88 63.5 150.5t153.5 62.5q88 0 150.5 -62.5t62.5 -150.5q0 -91 -62.5 -154.5t-150.5 -63.5q-91 0 -154 63.5t-63 154.5zM502 1688q0 -47 31.5 -79t78.5 -32
q45 0 76 32t31 79q0 44 -31.5 75t-75.5 31q-47 0 -78.5 -30.5t-31.5 -75.5z" />
    <glyph glyph-name="AE" unicode="&#xc6;" horiz-adv-x="1955" 
d="M965 0v420h-592l-232 -420h-141l772 1413h1047v-117h-729v-522h647v-117h-647v-540h770v-117h-895zM848 1296l-414 -759h531v759h-117z" />
    <glyph glyph-name="Ccedilla" unicode="&#xc7;" horiz-adv-x="1353" 
d="M244 705q0 -135 36.5 -250t100.5 -195q123 -156 332 -156q161 0 264 95q111 102 156 293h127q-24 -116 -77 -213.5t-124 -163.5q-132 -117 -307 -129v-56q61 -20 98 -68t37 -104q0 -78 -59.5 -134t-143.5 -56q-74 0 -123 36.5t-63 73.5l110 56q28 -51 74 -51
q31 0 53.5 20.5t22.5 54.5q0 49 -39.5 68.5t-91.5 19.5v144q-204 31 -338 190q-174 200 -174 527q0 325 176 526q80 94 189 145.5t233 51.5q188 0 340 -130q70 -63 123 -155.5t79 -202.5h-129q-50 183 -155 275q-108 92 -258 92q-207 0 -332 -158q-137 -170 -137 -446z" />
    <glyph glyph-name="Egrave" unicode="&#xc8;" horiz-adv-x="1265" 
d="M1128 1413v-117h-831v-522h750v-117h-750v-540h872v-117h-997v1413h956zM788 1524l-397 164l64 137l376 -205z" />
    <glyph glyph-name="Eacute" unicode="&#xc9;" horiz-adv-x="1265" 
d="M1128 1413v-117h-831v-522h750v-117h-750v-540h872v-117h-997v1413h956zM967 1688l-398 -164l-43 96l377 205z" />
    <glyph glyph-name="Ecircumflex" unicode="&#xca;" horiz-adv-x="1265" 
d="M1128 1413v-117h-831v-522h750v-117h-750v-540h872v-117h-997v1413h956zM592 1841h102l264 -211l-84 -96l-231 186l-231 -186l-84 96z" />
    <glyph glyph-name="Edieresis" unicode="&#xcb;" horiz-adv-x="1265" 
d="M1128 1413v-117h-831v-522h750v-117h-750v-540h872v-117h-997v1413h956zM344 1688q0 40 28 69t68 29t69.5 -29t29.5 -69t-29.5 -68.5t-69.5 -28.5t-68 28.5t-28 68.5zM739 1688q0 40 28.5 69t68.5 29t69 -29t29 -69t-29 -68.5t-69 -28.5t-68.5 28.5t-28.5 68.5z" />
    <glyph glyph-name="Igrave" unicode="&#xcc;" horiz-adv-x="468" 
d="M274 1524l-397 164l64 137l376 -205zM172 0v1413h125v-1413h-125z" />
    <glyph glyph-name="Iacute" unicode="&#xcd;" horiz-adv-x="468" 
d="M172 0v1413h125v-1413h-125zM588 1688l-398 -164l-43 96l377 205z" />
    <glyph glyph-name="Icircumflex" unicode="&#xce;" horiz-adv-x="468" 
d="M172 0v1413h125v-1413h-125zM182 1841h103l264 -211l-84 -96l-232 186l-231 -186l-84 96z" />
    <glyph glyph-name="Idieresis" unicode="&#xcf;" horiz-adv-x="468" 
d="M172 0v1413h125v-1413h-125zM-61 1688q0 40 28 69t68 29t69 -29t29 -69t-29 -68.5t-69 -28.5t-68 28.5t-28 68.5zM334 1688q0 40 28 69t68 29t69 -29t29 -69t-29 -68.5t-69 -28.5t-68 28.5t-28 68.5z" />
    <glyph glyph-name="Eth" unicode="&#xd0;" horiz-adv-x="1384" 
d="M49 649v117h123v647h559q147 0 272 -94.5t198 -257.5t73 -354t-73 -354t-198 -258t-272 -95h-559v649h-123zM297 117h408q121 0 222.5 78.5t159.5 213.5t58 296q0 162 -58 297.5t-159.5 214.5t-222.5 79h-408v-530h356v-117h-356v-532z" />
    <glyph glyph-name="Ntilde" unicode="&#xd1;" horiz-adv-x="1437" 
d="M1141 1413h125v-1413h-226l-735 1325h-8v-1325h-125v1413h225l733 -1325h11v1325zM385 1585v43q0 78 55 130t131 52q49 0 92.5 -19.5t68.5 -42.5t52 -42.5t47 -19.5q28 0 46 16t18 45v43h129v-43q0 -78 -55 -130t-131 -52q-49 0 -92.5 19.5t-68.5 43t-52 43t-47 19.5
q-28 0 -46 -16t-18 -46v-43h-129z" />
    <glyph glyph-name="Ograve" unicode="&#xd2;" horiz-adv-x="1419" 
d="M115 707q0 325 176 526q82 94 192 145.5t232 51.5q120 0 227.5 -51.5t187.5 -145.5q175 -200 175 -526q0 -329 -172 -529q-82 -94 -190 -144t-228 -50q-123 0 -233 50.5t-193 145.5q-174 200 -174 527zM244 707q0 -273 139 -441q63 -78 148 -120t180 -42t179.5 42
t147.5 120q138 171 138 441q0 267 -138 438q-63 79 -147.5 121.5t-179.5 42.5t-180 -43t-148 -121q-139 -168 -139 -438zM831 1524l-397 164l64 137l376 -205z" />
    <glyph glyph-name="Oacute" unicode="&#xd3;" horiz-adv-x="1419" 
d="M115 707q0 325 176 526q82 94 192 145.5t232 51.5q120 0 227.5 -51.5t187.5 -145.5q175 -200 175 -526q0 -329 -172 -529q-82 -94 -190 -144t-228 -50q-123 0 -233 50.5t-193 145.5q-174 200 -174 527zM244 707q0 -273 139 -441q63 -78 148 -120t180 -42t179.5 42
t147.5 120q138 171 138 441q0 267 -138 438q-63 79 -147.5 121.5t-179.5 42.5t-180 -43t-148 -121q-139 -168 -139 -438zM987 1688l-397 -164l-43 96l377 205z" />
    <glyph glyph-name="Ocircumflex" unicode="&#xd4;" horiz-adv-x="1419" 
d="M115 707q0 325 176 526q82 94 192 145.5t232 51.5q120 0 227.5 -51.5t187.5 -145.5q175 -200 175 -526q0 -329 -172 -529q-82 -94 -190 -144t-228 -50q-123 0 -233 50.5t-193 145.5q-174 200 -174 527zM244 707q0 -273 139 -441q63 -78 148 -120t180 -42t179.5 42
t147.5 120q138 171 138 441q0 267 -138 438q-63 79 -147.5 121.5t-179.5 42.5t-180 -43t-148 -121q-139 -168 -139 -438zM657 1841h103l264 -211l-84 -96l-231 186l-232 -186l-84 96z" />
    <glyph glyph-name="Otilde" unicode="&#xd5;" horiz-adv-x="1419" 
d="M115 707q0 325 176 526q82 94 192 145.5t232 51.5q120 0 227.5 -51.5t187.5 -145.5q175 -200 175 -526q0 -329 -172 -529q-82 -94 -190 -144t-228 -50q-123 0 -233 50.5t-193 145.5q-174 200 -174 527zM244 707q0 -273 139 -441q63 -78 148 -120t180 -42t179.5 42
t147.5 120q138 171 138 441q0 267 -138 438q-63 79 -147.5 121.5t-179.5 42.5t-180 -43t-148 -121q-139 -168 -139 -438zM395 1585v43q0 78 55 130t132 52q49 0 92.5 -19.5t68.5 -42.5t52 -42.5t47 -19.5q28 0 45.5 15.5t17.5 45.5v43h129v-43q0 -78 -55 -130t-131 -52
q-49 0 -92.5 19.5t-68.5 43t-52 43t-47 19.5q-28 0 -46 -16t-18 -46v-43h-129z" />
    <glyph glyph-name="Odieresis" unicode="&#xd6;" horiz-adv-x="1419" 
d="M115 707q0 325 176 526q82 94 192 145.5t232 51.5q120 0 227.5 -51.5t187.5 -145.5q175 -200 175 -526q0 -329 -172 -529q-82 -94 -190 -144t-228 -50q-123 0 -233 50.5t-193 145.5q-174 200 -174 527zM244 707q0 -273 139 -441q63 -78 148 -120t180 -42t179.5 42
t147.5 120q138 171 138 441q0 267 -138 438q-63 79 -147.5 121.5t-179.5 42.5t-180 -43t-148 -121q-139 -168 -139 -438zM414 1688q0 40 28 69t68 29t69 -29t29 -69t-29 -68.5t-69 -28.5t-68 28.5t-28 68.5zM809 1688q0 40 28 69t68 29t69.5 -29t29.5 -69t-29.5 -68.5
t-69.5 -28.5t-68 28.5t-28 68.5z" />
    <glyph glyph-name="multiply" unicode="&#xd7;" horiz-adv-x="1032" 
d="M102 907l80 80l314 -325h39l315 325l80 -80l-326 -315v-39l326 -313l-80 -80l-315 325h-39l-314 -325l-80 80l326 313v39z" />
    <glyph glyph-name="Oslash" unicode="&#xd8;" horiz-adv-x="1419" 
d="M115 707q0 325 176 526q82 94 192 145.5t232 51.5q120 0 235 -56l84 182l107 -49l-90 -196q37 -29 79 -78q175 -200 175 -526q0 -329 -172 -529q-82 -94 -190 -144t-228 -50q-137 0 -248 57l-84 -184l-107 49l91 198q-47 40 -78 76q-174 200 -174 527zM1038 1145l-43 45
l-477 -1038q91 -48 193 -48q95 0 179.5 42t147.5 120q138 171 138 441q0 267 -138 438zM244 707q0 -273 139 -441q20 -27 39 -43l477 1039q-86 47 -188 47q-95 0 -180 -43t-148 -121q-139 -168 -139 -438z" />
    <glyph glyph-name="Ugrave" unicode="&#xd9;" horiz-adv-x="1368" 
d="M684 104q95 0 168 23t119.5 63t76 99t41 124t11.5 146v854h125v-878q0 -121 -30 -218.5t-92.5 -173.5t-169 -117.5t-249.5 -41.5t-249.5 41.5t-169 117.5t-92.5 173.5t-30 218.5v878h125v-854q0 -81 11.5 -146t41 -124t76 -99t119.5 -63t168 -23zM831 1524l-397 164
l64 137l376 -205z" />
    <glyph glyph-name="Uacute" unicode="&#xda;" horiz-adv-x="1368" 
d="M684 104q95 0 168 23t119.5 63t76 99t41 124t11.5 146v854h125v-878q0 -121 -30 -218.5t-92.5 -173.5t-169 -117.5t-249.5 -41.5t-249.5 41.5t-169 117.5t-92.5 173.5t-30 218.5v878h125v-854q0 -81 11.5 -146t41 -124t76 -99t119.5 -63t168 -23zM987 1688l-397 -164
l-43 96l377 205z" />
    <glyph glyph-name="Ucircumflex" unicode="&#xdb;" horiz-adv-x="1368" 
d="M684 104q95 0 168 23t119.5 63t76 99t41 124t11.5 146v854h125v-878q0 -121 -30 -218.5t-92.5 -173.5t-169 -117.5t-249.5 -41.5t-249.5 41.5t-169 117.5t-92.5 173.5t-30 218.5v878h125v-854q0 -81 11.5 -146t41 -124t76 -99t119.5 -63t168 -23zM633 1841h102l264 -211
l-84 -96l-231 186l-231 -186l-84 96z" />
    <glyph glyph-name="Udieresis" unicode="&#xdc;" horiz-adv-x="1368" 
d="M684 104q95 0 168 23t119.5 63t76 99t41 124t11.5 146v854h125v-878q0 -121 -30 -218.5t-92.5 -173.5t-169 -117.5t-249.5 -41.5t-249.5 41.5t-169 117.5t-92.5 173.5t-30 218.5v878h125v-854q0 -81 11.5 -146t41 -124t76 -99t119.5 -63t168 -23zM389 1688q0 40 28 69
t68 29t69.5 -29t29.5 -69t-29.5 -68.5t-69.5 -28.5t-68 28.5t-28 68.5zM784 1688q0 40 28.5 69t68.5 29t69 -29t29 -69t-29 -68.5t-69 -28.5t-68.5 28.5t-28.5 68.5z" />
    <glyph glyph-name="Yacute" unicode="&#xdd;" horiz-adv-x="1136" 
d="M631 0h-125v659l-490 754h146l393 -616h27l393 616h145l-489 -754v-659zM864 1688l-397 -164l-43 96l377 205z" />
    <glyph glyph-name="Thorn" unicode="&#xde;" horiz-adv-x="1230" 
d="M752 299h-455v-299h-125v1413h125v-287h455q157 0 266.5 -119t109.5 -290q0 -172 -110 -295t-266 -123zM297 1010v-594h438q108 0 186 87.5t78 209.5t-78 209.5t-186 87.5h-438z" />
    <glyph glyph-name="germandbls" unicode="&#xdf;" horiz-adv-x="1128" 
d="M481 715v110h68q109 0 186.5 77.5t77.5 189.5q0 107 -77.5 184.5t-186.5 77.5q-107 0 -185.5 -77.5t-78.5 -184.5v-1092h-170v111h51v981q0 155 113.5 265.5t273.5 110.5t272.5 -110.5t112.5 -265.5q0 -58 -15 -105t-45 -82.5t-58 -59t-70 -50.5v-19q292 -121 292 -375
q0 -173 -133.5 -295t-322.5 -122q-58 0 -113 14l8 111q46 -11 97 -11q147 0 243.5 89.5t96.5 218.5q0 127 -100 218t-240 91h-97z" />
    <glyph glyph-name="agrave" unicode="&#xe0;" horiz-adv-x="1146" 
d="M270 745h-120q0 21 6.5 51.5t33 79t68.5 87t124.5 67.5t190.5 29q355 0 355 -309v-594q0 -31 21 -49.5t46 -18.5q48 0 66 45l94 -45q-17 -38 -56 -71t-100 -33q-71 0 -116 47t-52 106h-18q-79 -86 -174.5 -119.5t-159.5 -33.5q-24 0 -48.5 1.5t-64.5 9t-73.5 20t-71 37
t-63.5 57t-43 84t-17 114.5q0 244 361 318l348 71v45q0 37 -4 63.5t-18.5 54.5t-40 45.5t-70 28.5t-107.5 11q-72 0 -128 -16.5t-86.5 -40t-50.5 -53t-26 -51t-6 -38.5zM807 354v232l-303 -66q-44 -10 -74 -18t-72.5 -26t-69 -38.5t-46 -54t-19.5 -74.5q0 -106 65 -158.5
t185 -52.5h12q69 0 142.5 32t126.5 92.5t53 131.5zM672 1159l-361 207l80 123l336 -244z" />
    <glyph glyph-name="aacute" unicode="&#xe1;" horiz-adv-x="1146" 
d="M270 745h-120q0 21 6.5 51.5t33 79t68.5 87t124.5 67.5t190.5 29q355 0 355 -309v-594q0 -31 21 -49.5t46 -18.5q48 0 66 45l94 -45q-17 -38 -56 -71t-100 -33q-71 0 -116 47t-52 106h-18q-79 -86 -174.5 -119.5t-159.5 -33.5q-24 0 -48.5 1.5t-64.5 9t-73.5 20t-71 37
t-63.5 57t-43 84t-17 114.5q0 244 361 318l348 71v45q0 37 -4 63.5t-18.5 54.5t-40 45.5t-70 28.5t-107.5 11q-72 0 -128 -16.5t-86.5 -40t-50.5 -53t-26 -51t-6 -38.5zM807 354v232l-303 -66q-44 -10 -74 -18t-72.5 -26t-69 -38.5t-46 -54t-19.5 -74.5q0 -106 65 -158.5
t185 -52.5h12q69 0 142.5 32t126.5 92.5t53 131.5zM809 1366l-360 -207l-56 86l336 244z" />
    <glyph glyph-name="acircumflex" unicode="&#xe2;" horiz-adv-x="1146" 
d="M270 745h-120q0 21 6.5 51.5t33 79t68.5 87t124.5 67.5t190.5 29q355 0 355 -309v-594q0 -31 21 -49.5t46 -18.5q48 0 66 45l94 -45q-17 -38 -56 -71t-100 -33q-71 0 -116 47t-52 106h-18q-79 -86 -174.5 -119.5t-159.5 -33.5q-24 0 -48.5 1.5t-64.5 9t-73.5 20t-71 37
t-63.5 57t-43 84t-17 114.5q0 244 361 318l348 71v45q0 37 -4 63.5t-18.5 54.5t-40 45.5t-70 28.5t-107.5 11q-72 0 -128 -16.5t-86.5 -40t-50.5 -53t-26 -51t-6 -38.5zM807 354v232l-303 -66q-44 -10 -74 -18t-72.5 -26t-69 -38.5t-46 -54t-19.5 -74.5q0 -106 65 -158.5
t185 -52.5h12q69 0 142.5 32t126.5 92.5t53 131.5zM516 1470h102l240 -217l-80 -90l-211 193l-211 -193l-80 90z" />
    <glyph glyph-name="atilde" unicode="&#xe3;" horiz-adv-x="1146" 
d="M270 745h-120q0 21 6.5 51.5t33 79t68.5 87t124.5 67.5t190.5 29q355 0 355 -309v-594q0 -31 21 -49.5t46 -18.5q48 0 66 45l94 -45q-17 -38 -56 -71t-100 -33q-71 0 -116 47t-52 106h-18q-79 -86 -174.5 -119.5t-159.5 -33.5q-24 0 -48.5 1.5t-64.5 9t-73.5 20t-71 37
t-63.5 57t-43 84t-17 114.5q0 244 361 318l348 71v45q0 37 -4 63.5t-18.5 54.5t-40 45.5t-70 28.5t-107.5 11q-72 0 -128 -16.5t-86.5 -40t-50.5 -53t-26 -51t-6 -38.5zM807 354v232l-303 -66q-44 -10 -74 -18t-72.5 -26t-69 -38.5t-46 -54t-19.5 -74.5q0 -106 65 -158.5
t185 -52.5h12q69 0 142.5 32t126.5 92.5t53 131.5zM264 1221v39q0 75 52.5 125.5t125.5 50.5q46 0 86 -19t62 -41.5t48 -41.5t48 -19q26 0 45 15.5t19 43.5v39h120v-39q0 -75 -52.5 -125.5t-125.5 -50.5q-46 0 -86 19t-62 41.5t-47.5 41.5t-47.5 19q-26 0 -45 -15.5
t-19 -43.5v-39h-121z" />
    <glyph glyph-name="adieresis" unicode="&#xe4;" horiz-adv-x="1146" 
d="M270 745h-120q0 21 6.5 51.5t33 79t68.5 87t124.5 67.5t190.5 29q355 0 355 -309v-594q0 -31 21 -49.5t46 -18.5q48 0 66 45l94 -45q-17 -38 -56 -71t-100 -33q-71 0 -116 47t-52 106h-18q-79 -86 -174.5 -119.5t-159.5 -33.5q-24 0 -48.5 1.5t-64.5 9t-73.5 20t-71 37
t-63.5 57t-43 84t-17 114.5q0 244 361 318l348 71v45q0 37 -4 63.5t-18.5 54.5t-40 45.5t-70 28.5t-107.5 11q-72 0 -128 -16.5t-86.5 -40t-50.5 -53t-26 -51t-6 -38.5zM807 354v232l-303 -66q-44 -10 -74 -18t-72.5 -26t-69 -38.5t-46 -54t-19.5 -74.5q0 -106 65 -158.5
t185 -52.5h12q69 0 142.5 32t126.5 92.5t53 131.5zM285 1315q0 37 27 64.5t65 27.5q37 0 64.5 -27.5t27.5 -64.5q0 -38 -27.5 -65t-64.5 -27q-38 0 -65 27t-27 65zM670 1315q0 37 27 64.5t65 27.5q37 0 64.5 -27.5t27.5 -64.5q0 -38 -27.5 -65t-64.5 -27q-38 0 -65 27
t-27 65z" />
    <glyph glyph-name="aring" unicode="&#xe5;" horiz-adv-x="1146" 
d="M270 745h-120q0 21 6.5 51.5t33 79t68.5 87t124.5 67.5t190.5 29q355 0 355 -309v-594q0 -31 21 -49.5t46 -18.5q48 0 66 45l94 -45q-17 -38 -56 -71t-100 -33q-71 0 -116 47t-52 106h-18q-79 -86 -174.5 -119.5t-159.5 -33.5q-24 0 -48.5 1.5t-64.5 9t-73.5 20t-71 37
t-63.5 57t-43 84t-17 114.5q0 244 361 318l348 71v45q0 37 -4 63.5t-18.5 54.5t-40 45.5t-70 28.5t-107.5 11q-72 0 -128 -16.5t-86.5 -40t-50.5 -53t-26 -51t-6 -38.5zM807 354v232l-303 -66q-44 -10 -74 -18t-72.5 -26t-69 -38.5t-46 -54t-19.5 -74.5q0 -106 65 -158.5
t185 -52.5h12q69 0 142.5 32t126.5 92.5t53 131.5zM358 1348q0 86 62 147t151 61q86 0 147.5 -61t61.5 -147q0 -89 -61 -151t-148 -62q-89 0 -151 62t-62 151zM465 1348q0 -46 30 -76.5t76 -30.5q43 0 73 31t30 76q0 43 -30 72.5t-73 29.5q-45 0 -75.5 -29.5t-30.5 -72.5z
" />
    <glyph glyph-name="ae" unicode="&#xe6;" horiz-adv-x="1851" 
d="M1288 -16q-118 0 -217 53t-162 149h-39q-80 -101 -187.5 -151.5t-203.5 -50.5q-22 0 -43 1t-61.5 7.5t-74 18.5t-72.5 36t-66 57t-45.5 85.5t-18.5 117.5q0 70 33.5 126.5t87 90.5t115.5 52t125 18h350v164q0 29 -3 50.5t-17 49t-38 44.5t-70.5 29.5t-111.5 12.5
q-83 0 -144 -20.5t-89.5 -50t-45 -58.5t-18.5 -49l-2 -21h-120q0 7 1 18t10 43.5t23.5 62.5t46.5 66t75 62t112.5 44t154.5 18q285 0 340 -197q65 93 162 145t213 52q203 0 334 -150.5t131 -388.5v-33h-825q4 -170 113.5 -279.5t263.5 -109.5q110 0 190.5 62t126.5 172
l109 -49q-60 -138 -178.5 -218.5t-264.5 -80.5zM809 356v131h-317q-125 0 -197 -43.5t-72 -134.5q0 -211 244 -211h14q72 0 147.5 34t128 95t52.5 129zM1286 944q-139 0 -239 -96.5t-119 -253.5h696q-19 158 -111.5 254t-226.5 96z" />
    <glyph glyph-name="ccedilla" unicode="&#xe7;" horiz-adv-x="1146" 
d="M233 520q0 -186 103 -304t254 -118q108 0 195 65t128 179h131q-42 -147 -148 -241t-245 -113v-76q59 -17 94 -62.5t35 -99.5q0 -75 -56.5 -128.5t-135.5 -53.5q-71 0 -117.5 34.5t-60.5 71.5l106 52q25 -48 70 -48q29 0 50 20t21 52q0 82 -122 82v156q-184 21 -305 167
t-121 365q0 117 38 218.5t103 171t153.5 109.5t186.5 40q170 0 300.5 -113.5t166.5 -298.5h-129q-34 136 -126.5 216.5t-211.5 80.5q-150 0 -253.5 -119t-103.5 -305z" />
    <glyph glyph-name="egrave" unicode="&#xe8;" horiz-adv-x="1161" 
d="M598 -16q-100 0 -189.5 39.5t-155.5 108.5t-105 170t-39 218q0 156 66.5 280t177.5 191.5t245 67.5q203 0 334 -150.5t131 -388.5v-33h-825q4 -170 113 -279.5t263 -109.5q110 0 191.5 62t126.5 172l108 -49q-60 -139 -178 -219t-264 -80zM596 944q-139 0 -239 -96.5
t-119 -253.5h696q-19 158 -111.5 254t-226.5 96zM684 1159l-360 207l79 123l336 -244z" />
    <glyph glyph-name="eacute" unicode="&#xe9;" horiz-adv-x="1161" 
d="M598 -16q-100 0 -189.5 39.5t-155.5 108.5t-105 170t-39 218q0 156 66.5 280t177.5 191.5t245 67.5q203 0 334 -150.5t131 -388.5v-33h-825q4 -170 113 -279.5t263 -109.5q110 0 191.5 62t126.5 172l108 -49q-60 -139 -178 -219t-264 -80zM596 944q-139 0 -239 -96.5
t-119 -253.5h696q-19 158 -111.5 254t-226.5 96zM848 1366l-361 -207l-55 86l336 244z" />
    <glyph glyph-name="ecircumflex" unicode="&#xea;" horiz-adv-x="1161" 
d="M598 -16q-100 0 -189.5 39.5t-155.5 108.5t-105 170t-39 218q0 156 66.5 280t177.5 191.5t245 67.5q203 0 334 -150.5t131 -388.5v-33h-825q4 -170 113 -279.5t263 -109.5q110 0 191.5 62t126.5 172l108 -49q-60 -139 -178 -219t-264 -80zM596 944q-139 0 -239 -96.5
t-119 -253.5h696q-19 158 -111.5 254t-226.5 96zM545 1470h102l240 -217l-80 -90l-211 193l-211 -193l-80 90z" />
    <glyph glyph-name="edieresis" unicode="&#xeb;" horiz-adv-x="1161" 
d="M598 -16q-100 0 -189.5 39.5t-155.5 108.5t-105 170t-39 218q0 156 66.5 280t177.5 191.5t245 67.5q203 0 334 -150.5t131 -388.5v-33h-825q4 -170 113 -279.5t263 -109.5q110 0 191.5 62t126.5 172l108 -49q-60 -139 -178 -219t-264 -80zM596 944q-139 0 -239 -96.5
t-119 -253.5h696q-19 158 -111.5 254t-226.5 96zM313 1315q0 37 27.5 64.5t65.5 27.5q37 0 64.5 -27.5t27.5 -64.5q0 -38 -27.5 -65t-64.5 -27q-38 0 -65.5 27t-27.5 65zM698 1315q0 37 27.5 64.5t65.5 27.5q37 0 64.5 -27.5t27.5 -64.5q0 -38 -27.5 -65t-64.5 -27
q-38 0 -65.5 27t-27.5 65z" />
    <glyph glyph-name="igrave" unicode="&#xec;" horiz-adv-x="434" 
d="M158 0v1038h121v-1038h-121zM279 1159l-361 207l80 123l336 -244z" />
    <glyph glyph-name="iacute" unicode="&#xed;" horiz-adv-x="434" 
d="M158 0v1038h121v-1038h-121zM518 1366l-360 -207l-56 86l336 244z" />
    <glyph glyph-name="icircumflex" unicode="&#xee;" horiz-adv-x="434" 
d="M158 0v1038h121v-1038h-121zM166 1470h102l240 -217l-80 -90l-211 193l-211 -193l-80 90z" />
    <glyph glyph-name="idieresis" unicode="&#xef;" horiz-adv-x="434" 
d="M158 0v1038h121v-1038h-121zM-70 1315q0 37 27.5 64.5t65.5 27.5q37 0 64.5 -27.5t27.5 -64.5q0 -38 -27.5 -65t-64.5 -27q-38 0 -65.5 27t-27.5 65zM315 1315q0 37 27.5 64.5t65.5 27.5q37 0 64.5 -27.5t27.5 -64.5q0 -38 -27.5 -65t-64.5 -27q-38 0 -65.5 27t-27.5 65z
" />
    <glyph glyph-name="eth" unicode="&#xf0;" horiz-adv-x="1187" 
d="M233 520q0 -185 104.5 -303.5t256.5 -118.5t256 118.5t104 303.5t-104 304.5t-256 119.5t-256.5 -119.5t-104.5 -304.5zM592 1059q128 0 262 -113q-38 61 -116 142.5t-152 144.5q-30 -16 -65 -36t-76.5 -43.5t-63.5 -35.5l-72 72l191 108q-90 58 -178 101l71 69
q109 -53 211 -125q214 125 217 127l74 -69l-203 -121q85 -74 150.5 -150t121 -170t85.5 -205.5t30 -234.5q0 -117 -38.5 -218t-104.5 -170t-155 -108.5t-189 -39.5q-98 0 -186.5 39.5t-154 108.5t-104 170t-38.5 218t38.5 218.5t104 171t154 109.5t186.5 40z" />
    <glyph glyph-name="ntilde" unicode="&#xf1;" horiz-adv-x="1163" 
d="M279 0h-121v1038h121v-227h16q63 112 162 180t219 68q68 0 122.5 -15t88 -37t58.5 -54.5t36.5 -59t18 -59t7.5 -47t1 -29.5v-758h-121v735q0 12 -1.5 24.5t-7 40t-20.5 50t-37.5 45.5t-63.5 36t-93 13q-67 0 -134.5 -34t-124 -95t-91.5 -156t-35 -206v-453zM276 1221v39
q0 75 53 125.5t126 50.5q46 0 86 -19t62 -41.5t47.5 -41.5t47.5 -19q26 0 45 15.5t19 43.5v39h121v-39q0 -75 -52.5 -125.5t-125.5 -50.5q-46 0 -86 19t-62 41.5t-48 41.5t-48 19q-26 0 -45 -15.5t-19 -43.5v-39h-121z" />
    <glyph glyph-name="ograve" unicode="&#xf2;" horiz-adv-x="1191" 
d="M109 520q0 156 66.5 280t177.5 191.5t245 67.5q98 0 187 -40t154.5 -109.5t104.5 -171t39 -218.5t-39 -218t-104.5 -170t-154.5 -108.5t-187 -39.5q-100 0 -189.5 39.5t-155.5 108.5t-105 170t-39 218zM233 520q0 -185 105.5 -303.5t257.5 -118.5t257 118t105 304
t-105 305t-257 119t-257.5 -119t-105.5 -305zM682 1159l-360 207l79 123l336 -244z" />
    <glyph glyph-name="oacute" unicode="&#xf3;" horiz-adv-x="1191" 
d="M109 520q0 156 66.5 280t177.5 191.5t245 67.5q98 0 187 -40t154.5 -109.5t104.5 -171t39 -218.5t-39 -218t-104.5 -170t-154.5 -108.5t-187 -39.5q-100 0 -189.5 39.5t-155.5 108.5t-105 170t-39 218zM233 520q0 -185 105.5 -303.5t257.5 -118.5t257 118t105 304
t-105 305t-257 119t-257.5 -119t-105.5 -305zM848 1366l-361 -207l-55 86l336 244z" />
    <glyph glyph-name="ocircumflex" unicode="&#xf4;" horiz-adv-x="1191" 
d="M109 520q0 156 66.5 280t177.5 191.5t245 67.5q98 0 187 -40t154.5 -109.5t104.5 -171t39 -218.5t-39 -218t-104.5 -170t-154.5 -108.5t-187 -39.5q-100 0 -189.5 39.5t-155.5 108.5t-105 170t-39 218zM233 520q0 -185 105.5 -303.5t257.5 -118.5t257 118t105 304
t-105 305t-257 119t-257.5 -119t-105.5 -305zM545 1470h102l240 -217l-80 -90l-211 193l-211 -193l-80 90z" />
    <glyph glyph-name="otilde" unicode="&#xf5;" horiz-adv-x="1191" 
d="M109 520q0 156 66.5 280t177.5 191.5t245 67.5q98 0 187 -40t154.5 -109.5t104.5 -171t39 -218.5t-39 -218t-104.5 -170t-154.5 -108.5t-187 -39.5q-100 0 -189.5 39.5t-155.5 108.5t-105 170t-39 218zM233 520q0 -185 105.5 -303.5t257.5 -118.5t257 118t105 304
t-105 305t-257 119t-257.5 -119t-105.5 -305zM289 1221v39q0 75 52.5 125.5t125.5 50.5q46 0 86 -19t62 -41.5t48 -41.5t48 -19q26 0 44.5 15.5t18.5 43.5v39h121v-39q0 -75 -52.5 -125.5t-125.5 -50.5q-46 0 -86 19t-62 41.5t-48 41.5t-48 19q-26 0 -44.5 -15.5
t-18.5 -43.5v-39h-121z" />
    <glyph glyph-name="odieresis" unicode="&#xf6;" horiz-adv-x="1191" 
d="M109 520q0 156 66.5 280t177.5 191.5t245 67.5q98 0 187 -40t154.5 -109.5t104.5 -171t39 -218.5t-39 -218t-104.5 -170t-154.5 -108.5t-187 -39.5q-100 0 -189.5 39.5t-155.5 108.5t-105 170t-39 218zM233 520q0 -185 105.5 -303.5t257.5 -118.5t257 118t105 304
t-105 305t-257 119t-257.5 -119t-105.5 -305zM309 1315q0 37 27 64.5t65 27.5q37 0 65 -27.5t28 -64.5q0 -38 -28 -65t-65 -27q-38 0 -65 27t-27 65zM694 1315q0 37 27 64.5t65 27.5q37 0 65 -27.5t28 -64.5q0 -38 -28 -65t-65 -27q-38 0 -65 27t-27 65z" />
    <glyph glyph-name="divide" unicode="&#xf7;" horiz-adv-x="995" 
d="M92 537v114h811v-114h-811zM403 913q0 37 27.5 65t65.5 28q37 0 64.5 -28t27.5 -65q0 -38 -27.5 -65t-64.5 -27q-38 0 -65.5 27t-27.5 65zM403 274q0 37 27.5 65t65.5 28q37 0 64.5 -28t27.5 -65q0 -38 -27.5 -65t-64.5 -27q-38 0 -65.5 27t-27.5 65z" />
    <glyph glyph-name="oslash" unicode="&#xf8;" horiz-adv-x="1191" 
d="M109 520q0 156 66.5 280t177.5 191.5t245 67.5q132 0 244 -70l125 189l92 -62l-129 -196q72 -72 112.5 -175t40.5 -225q0 -117 -39 -218t-104.5 -170t-154.5 -108.5t-187 -39.5q-139 0 -246 67l-129 -194l-92 61l133 201q-155 152 -155 401zM233 520q0 -177 99 -297
l444 668q-85 53 -180 53q-152 0 -257.5 -119t-105.5 -305zM958 520q0 172 -98 295l-442 -665q84 -52 178 -52q152 0 257 118t105 304z" />
    <glyph glyph-name="ugrave" unicode="&#xf9;" horiz-adv-x="1163" 
d="M885 1038h121v-1038h-121v233h-17q-63 -113 -162 -181t-219 -68q-68 0 -122 15t-88 37t-58.5 54.5t-36 59t-18 59t-7.5 47t-1 29.5v753h120v-731q0 -15 1.5 -32t14 -51.5t34 -60t67 -45.5t107.5 -20q53 0 107.5 21t104 63.5t88.5 100.5t62 137.5t23 169.5v448zM680 1159
l-361 207l80 123l336 -244z" />
    <glyph glyph-name="uacute" unicode="&#xfa;" horiz-adv-x="1163" 
d="M885 1038h121v-1038h-121v233h-17q-63 -113 -162 -181t-219 -68q-68 0 -122 15t-88 37t-58.5 54.5t-36 59t-18 59t-7.5 47t-1 29.5v753h120v-731q0 -15 1.5 -32t14 -51.5t34 -60t67 -45.5t107.5 -20q53 0 107.5 21t104 63.5t88.5 100.5t62 137.5t23 169.5v448zM840 1366
l-361 -207l-55 86l336 244z" />
    <glyph glyph-name="ucircumflex" unicode="&#xfb;" horiz-adv-x="1163" 
d="M885 1038h121v-1038h-121v233h-17q-63 -113 -162 -181t-219 -68q-68 0 -122 15t-88 37t-58.5 54.5t-36 59t-18 59t-7.5 47t-1 29.5v753h120v-731q0 -15 1.5 -32t14 -51.5t34 -60t67 -45.5t107.5 -20q53 0 107.5 21t104 63.5t88.5 100.5t62 137.5t23 169.5v448zM526 1470
h103l239 -217l-80 -90l-210 193l-211 -193l-80 90z" />
    <glyph glyph-name="udieresis" unicode="&#xfc;" horiz-adv-x="1163" 
d="M885 1038h121v-1038h-121v233h-17q-63 -113 -162 -181t-219 -68q-68 0 -122 15t-88 37t-58.5 54.5t-36 59t-18 59t-7.5 47t-1 29.5v753h120v-731q0 -15 1.5 -32t14 -51.5t34 -60t67 -45.5t107.5 -20q53 0 107.5 21t104 63.5t88.5 100.5t62 137.5t23 169.5v448zM285 1315
q0 37 27 64.5t65 27.5q37 0 64.5 -27.5t27.5 -64.5q0 -38 -27.5 -65t-64.5 -27q-38 0 -65 27t-27 65zM670 1315q0 37 27 64.5t65 27.5q37 0 64.5 -27.5t27.5 -64.5q0 -38 -27.5 -65t-64.5 -27q-38 0 -65 27t-27 65z" />
    <glyph glyph-name="yacute" unicode="&#xfd;" horiz-adv-x="1015" 
d="M180 -420q-55 0 -104 14l28 113q37 -12 74 -12q74 0 121.5 29.5t65.5 78.5l90 236l-414 999h131l334 -807h26l308 807h129l-490 -1271q-33 -85 -108 -136t-191 -51zM768 1366l-360 -207l-56 86l336 244z" />
    <glyph glyph-name="thorn" unicode="&#xfe;" horiz-adv-x="1218" 
d="M160 -371v1796h121v-577h12q71 101 160 156t190 55q128 0 235.5 -72.5t169.5 -196.5t62 -270q0 -145 -62 -268.5t-169.5 -195.5t-235.5 -72q-211 0 -350 198h-12v-553h-121zM281 522v-18q5 -183 99 -294.5t255 -111.5q148 0 249 122.5t101 299.5q0 179 -101 301.5
t-249 122.5q-166 0 -260 -115.5t-94 -306.5z" />
    <glyph glyph-name="ydieresis" unicode="&#xff;" horiz-adv-x="1015" 
d="M180 -420q-55 0 -104 14l28 113q37 -12 74 -12q74 0 121.5 29.5t65.5 78.5l90 236l-414 999h131l334 -807h26l308 807h129l-490 -1271q-33 -85 -108 -136t-191 -51zM217 1315q0 37 27 64.5t65 27.5q37 0 64.5 -27.5t27.5 -64.5q0 -38 -27.5 -65t-64.5 -27q-38 0 -65 27
t-27 65zM602 1315q0 37 27 64.5t65 27.5q37 0 64.5 -27.5t27.5 -64.5q0 -38 -27.5 -65t-64.5 -27q-38 0 -65 27t-27 65z" />
    <glyph glyph-name="dotlessi" unicode="&#x131;" horiz-adv-x="434" 
d="M158 0v1038h121v-1038h-121z" />
    <glyph glyph-name="Lslash" unicode="&#x141;" horiz-adv-x="1136" 
d="M297 606v-489h768v-117h-893v530l-139 -84v146l139 84v737h125v-659l268 166v-148z" />
    <glyph glyph-name="lslash" unicode="&#x142;" horiz-adv-x="440" 
d="M160 791v634h121v-559l157 97v-148l-157 -96v-719h-121v645l-166 -100v145z" />
    <glyph glyph-name="OE" unicode="&#x152;" horiz-adv-x="2113" 
d="M115 707q0 325 168 526q77 94 181 145.5t222 51.5q113 0 215.5 -55.5t179.5 -151.5q22 -28 41 -60v250h854v-117h-729v-522h647v-117h-647v-540h770v-117h-895v242q-26 -40 -39 -54q-78 -96 -181 -150t-216 -54q-119 0 -223 50.5t-182 145.5q-166 200 -166 527zM244 707
q0 -271 131 -441q60 -78 140 -120t169 -42q186 0 311 162q109 145 127 371v137q-17 223 -127 371q-60 79 -140.5 121.5t-170.5 42.5q-89 0 -169 -42.5t-140 -121.5q-131 -170 -131 -438z" />
    <glyph glyph-name="oe" unicode="&#x153;" horiz-adv-x="2011" 
d="M1448 -16q-134 0 -249 78.5t-179 205.5q-65 -126 -178.5 -205t-243.5 -79q-100 0 -189.5 39.5t-155.5 108.5t-105 170t-39 218q0 156 66.5 280t177.5 191.5t245 67.5q130 0 243.5 -80t178.5 -207q65 127 180 207t248 80q203 0 334 -150.5t131 -388.5v-33h-826
q4 -170 113.5 -279.5t263.5 -109.5q110 0 191.5 62t126.5 172l108 -49q-60 -139 -178 -219t-264 -80zM233 520q0 -185 105.5 -303.5t257.5 -118.5t257 118t105 304t-105 305t-257 119t-257.5 -119t-105.5 -305zM1446 944q-139 0 -239.5 -96.5t-119.5 -253.5h697
q-19 158 -111.5 254t-226.5 96z" />
    <glyph glyph-name="Scaron" unicode="&#x160;" horiz-adv-x="1300" 
d="M598 1430q216 0 355.5 -100t179.5 -300h-134q-30 138 -133 208.5t-266 70.5q-45 0 -92.5 -10.5t-94 -33.5t-83.5 -55t-59.5 -79t-22.5 -101q0 -40 15 -73.5t38 -56.5t60 -41t70 -28.5t80.5 -18.5t80 -11.5t78.5 -7.5q62 -5 113.5 -12t108 -21t101 -33.5t85.5 -50
t68.5 -68.5t43.5 -91.5t16 -117.5q0 -105 -38.5 -185.5t-108 -130t-160.5 -74.5t-201 -25q-157 0 -286.5 54t-216 162.5t-105.5 256.5h129q39 -172 163.5 -262.5t309.5 -90.5q80 0 146.5 15.5t121.5 49t86 94t31 143.5q0 61 -25 107t-63.5 74t-99 46t-117.5 26t-133 13
q-73 5 -139 16.5t-138 38t-123.5 65.5t-85.5 103.5t-34 146.5q0 85 42.5 159.5t111 123.5t154 77t171.5 28zM696 1534h-102l-264 211l84 96l231 -186l232 186l84 -96z" />
    <glyph glyph-name="scaron" unicode="&#x161;" horiz-adv-x="1075" 
d="M932 729h-123q-22 113 -89 164t-196 51q-112 0 -187 -42.5t-75 -133.5q0 -30 13 -54.5t31.5 -41t50.5 -30.5t57 -22t64 -14.5t59.5 -9t54.5 -6.5q53 -6 93 -13t91 -20.5t87 -35t69 -52t50 -76t17 -102.5q0 -53 -23.5 -104.5t-72 -98.5t-136 -75.5t-202.5 -28.5
q-111 0 -202 32.5t-146 84.5t-86 112t-33 121h125q3 -40 25.5 -80t62.5 -76t106.5 -58t147.5 -22q85 0 148 18.5t96.5 48.5t49 61.5t15.5 64.5q0 43 -13.5 72.5t-38 48t-69 31.5t-97 22t-131.5 20h-3q-65 9 -112.5 19.5t-102.5 32.5t-89.5 51t-57.5 76.5t-23 109.5
q0 12 2 28t11 45t23.5 55.5t44 56t69 51t101 35.5t136.5 14q78 0 142 -17t105 -40.5t72.5 -60t46.5 -64.5t25.5 -65.5t12.5 -51t4 -31.5zM590 1163h-103l-239 217l80 90l211 -192l211 192l79 -90z" />
    <glyph glyph-name="Ydieresis" unicode="&#x178;" horiz-adv-x="1136" 
d="M631 0h-125v659l-490 754h146l393 -616h27l393 616h145l-489 -754v-659zM270 1688q0 40 28.5 69t68.5 29t69 -29t29 -69t-29 -68.5t-69 -28.5t-68.5 28.5t-28.5 68.5zM666 1688q0 40 28 69t68 29t69 -29t29 -69t-29 -68.5t-69 -28.5t-68 28.5t-28 68.5z" />
    <glyph glyph-name="Zcaron" unicode="&#x17d;" horiz-adv-x="1267" 
d="M1184 0h-1137v125l952 1157v14h-886v117h1048v-125l-952 -1157v-14h975v-117zM694 1534h-102l-264 211l84 96l231 -186l231 186l84 -96z" />
    <glyph glyph-name="zcaron" unicode="&#x17e;" horiz-adv-x="985" 
d="M918 0h-850v111l643 811v6h-592v110h749v-108l-645 -813v-6h695v-111zM541 1163h-103l-239 217l80 90l210 -192l211 192l80 -90z" />
    <glyph glyph-name="longs" unicode="&#x17f;" horiz-adv-x="595" 
d="M287 1038v117q0 128 89 217.5t216 89.5q143 0 237 -112l-104 -58q-53 56 -131 56t-132 -55t-54 -132v-1161h-121v928h-246v110h246z" />
    <glyph glyph-name="florin" unicode="&#x192;" horiz-adv-x="1130" 
d="M354 90l99 582h-279l19 106h278l35 211q21 129 114.5 198.5t235.5 69.5q135 0 238 -53l-66 -104q-70 39 -166 39q-197 0 -229 -185l-31 -176h352l-18 -106h-350l-105 -617q-23 -131 -118 -199.5t-236 -68.5q-139 0 -240 55l68 107q77 -41 174 -41q193 0 225 182z" />
    <glyph glyph-name="circumflex" unicode="&#x2c6;" horiz-adv-x="802" 
d="M350 1470h103l239 -217l-80 -90l-211 193l-211 -193l-79 90z" />
    <glyph glyph-name="caron" unicode="&#x2c7;" horiz-adv-x="802" 
d="M453 1163h-103l-239 217l79 90l211 -192l211 192l80 -90z" />
    <glyph glyph-name="uni02C9" unicode="&#x2c9;" horiz-adv-x="770" 
d="M111 1262v110h548v-110h-548z" />
    <glyph glyph-name="breve" unicode="&#x2d8;" horiz-adv-x="794" 
d="M229 1456q0 -67 50 -116.5t118 -49.5t118 49.5t50 116.5v4h119q0 -118 -84.5 -201t-202.5 -83q-119 0 -202.5 83t-83.5 201h118v-4z" />
    <glyph glyph-name="dotaccent" unicode="&#x2d9;" horiz-adv-x="405" 
d="M111 1315q0 37 27 64.5t65 27.5q37 0 64.5 -27.5t27.5 -64.5q0 -38 -27.5 -65t-64.5 -27q-38 0 -65 27t-27 65z" />
    <glyph glyph-name="ring" unicode="&#x2da;" horiz-adv-x="643" 
d="M111 1348q0 86 62 147t151 61q86 0 147 -61t61 -147q0 -89 -61 -151t-147 -62q-89 0 -151 62t-62 151zM217 1348q0 -46 30.5 -76.5t76.5 -30.5q43 0 72.5 30.5t29.5 76.5q0 43 -29.5 72.5t-72.5 29.5q-46 0 -76.5 -29.5t-30.5 -72.5z" />
    <glyph glyph-name="ogonek" unicode="&#x2db;" horiz-adv-x="616" 
d="M403 -266l103 -49q-27 -51 -79 -84t-120 -33q-72 0 -134 49.5t-62 124.5q0 85 53 151.5t121 106.5h135q-1 -2 -33.5 -25t-63.5 -50t-58 -73.5t-27 -95.5q0 -31 25.5 -52t55.5 -21q59 0 84 51z" />
    <glyph glyph-name="tilde" unicode="&#x2dc;" horiz-adv-x="827" 
d="M111 1221v39q0 75 52.5 125.5t125.5 50.5q46 0 86 -19t62 -41.5t47.5 -41.5t47.5 -19q26 0 45 15.5t19 43.5v39h121v-39q0 -75 -52.5 -125.5t-125.5 -50.5q-46 0 -86 19t-62 41.5t-48 41.5t-48 19q-26 0 -45 -15.5t-19 -43.5v-39h-120z" />
    <glyph glyph-name="hungarumlaut" unicode="&#x2dd;" horiz-adv-x="888" 
d="M178 1159l-67 76l260 268l98 -106zM457 1159l-58 84l297 230l82 -117z" />
    <glyph glyph-name="uni0394" unicode="&#x394;" horiz-adv-x="1114" 
d="M616 1413l437 -1302v-111h-992v111l437 1302h118zM930 111l-373 1122l-373 -1122h746z" />
    <glyph glyph-name="uni03A9" unicode="&#x3a9;" horiz-adv-x="1273" 
d="M381 111v18q-120 113 -199.5 273.5t-79.5 359.5q0 300 151.5 484t389.5 184q159 0 281 -91.5t184.5 -241t62.5 -329.5q0 -142 -44.5 -273t-104 -217t-131.5 -149v-18h270v-111h-444v98q60 44 113 99t104.5 132.5t82 180t30.5 215.5q0 102 -25 202.5t-73 187t-128.5 140.5
t-181.5 54q-127 0 -222 -80t-142.5 -212t-47.5 -296q0 -107 31 -208t82 -179.5t105.5 -136.5t111.5 -99v-98h-444v111h268z" />
    <glyph glyph-name="uni03BC" unicode="&#x3bc;" horiz-adv-x="1150" 
d="M602 -16q-45 0 -74 3.5t-70 16t-83 42.5t-90 79v-487h-121v1400h121v-524q0 -114 21.5 -195t63 -127t95 -67t123.5 -21q132 0 208 136t76 368v430h121v-1038h-121v190v-2q-49 -101 -120.5 -152.5t-149.5 -51.5z" />
    <glyph glyph-name="pi" unicode="&#x3c0;" horiz-adv-x="1132" 
d="M780 281v647h-473v-928h-123v928h-135v110h983v-110h-129v-688q0 -36 1 -56.5t5.5 -43t15 -32.5t27.5 -10h70v-114h-70q-62 0 -101.5 41.5t-55 105t-15.5 150.5z" />
    <glyph glyph-name="uni2007" unicode="&#x2007;" horiz-adv-x="1148" 
 />
    <glyph glyph-name="uni2008" unicode="&#x2008;" horiz-adv-x="471" 
 />
    <glyph glyph-name="uni200B" unicode="&#x200b;" horiz-adv-x="0" 
 />
    <glyph glyph-name="endash" unicode="&#x2013;" horiz-adv-x="1259" 
d="M113 438v111h1034v-111h-1034z" />
    <glyph glyph-name="emdash" unicode="&#x2014;" horiz-adv-x="2000" 
d="M113 438v111h1775v-111h-1775z" />
    <glyph glyph-name="quoteleft" unicode="&#x2018;" horiz-adv-x="448" 
d="M328 1065q0 -43 -29.5 -73.5t-69.5 -30.5q-48 0 -77 32.5t-29 87.5q0 52 19.5 106t47.5 94.5t56 73t48 49.5l19 17l56 -61q-99 -96 -133 -197q38 0 65 -29t27 -69z" />
    <glyph glyph-name="quoteright" unicode="&#x2019;" horiz-adv-x="448" 
d="M123 1329q0 43 29 74t69 31q48 0 77.5 -33t29.5 -88q0 -52 -19.5 -106t-48 -94.5t-56.5 -73t-48 -49.5l-19 -17l-55 61q99 96 133 197q-38 0 -65 29t-27 69z" />
    <glyph glyph-name="quotesinglbase" unicode="&#x201a;" horiz-adv-x="468" 
d="M182 90q0 43 29.5 74t69.5 31q48 0 77 -33t29 -88q0 -52 -19.5 -106t-47.5 -94.5t-56 -73t-48 -49.5l-19 -17l-56 61q99 96 133 197q-38 0 -65 29t-27 69z" />
    <glyph glyph-name="quotedblleft" unicode="&#x201c;" horiz-adv-x="788" 
d="M328 1065q0 -43 -29.5 -73.5t-69.5 -30.5q-48 0 -77 32.5t-29 87.5q0 52 19.5 106t47.5 94.5t56 73t48 49.5l19 17l56 -61q-99 -96 -133 -197q38 0 65 -29t27 -69zM668 1065q0 -43 -29.5 -73.5t-69.5 -30.5q-48 0 -77 32.5t-29 87.5q0 52 19.5 106t47.5 94.5t56 73
t48 49.5l19 17l56 -61q-100 -97 -134 -197q38 0 65.5 -29t27.5 -69z" />
    <glyph glyph-name="quotedblright" unicode="&#x201d;" horiz-adv-x="788" 
d="M123 1329q0 43 29 74t69 31q48 0 77.5 -33t29.5 -88q0 -52 -19.5 -106t-48 -94.5t-56.5 -73t-48 -49.5l-19 -17l-55 61q99 96 133 197q-38 0 -65 29t-27 69zM463 1329q0 43 29 74t69 31q48 0 77.5 -33t29.5 -88q0 -52 -19.5 -106t-48 -94.5t-56.5 -73t-48 -49.5l-19 -17
l-55 61q99 96 133 197q-38 0 -65 29t-27 69z" />
    <glyph glyph-name="quotedblbase" unicode="&#x201e;" horiz-adv-x="808" 
d="M182 90q0 43 29.5 74t69.5 31q48 0 77 -33t29 -88q0 -52 -19.5 -106t-47.5 -94.5t-56 -73t-48 -49.5l-19 -17l-56 61q99 96 133 197q-38 0 -65 29t-27 69zM522 90q0 43 29.5 74t69.5 31q48 0 77 -33t29 -88q0 -52 -19.5 -106t-47.5 -94.5t-56 -73t-48 -49.5l-19 -17
l-56 61q99 96 133 197q-38 0 -65 29t-27 69z" />
    <glyph glyph-name="dagger" unicode="&#x2020;" horiz-adv-x="1021" 
d="M92 1051h359v379h120v-379h359v-111h-359v-1149h-120v1149h-359v111z" />
    <glyph glyph-name="daggerdbl" unicode="&#x2021;" horiz-adv-x="1021" 
d="M92 1051h359v379h120v-379h359v-111h-359v-659h359v-111h-359v-379h-120v379h-359v111h359v659h-359v111z" />
    <glyph glyph-name="bullet" unicode="&#x2022;" horiz-adv-x="831" 
d="M651 569q0 -98 -68.5 -166.5t-166.5 -68.5t-167 68.5t-69 166.5t69 167t167 69t166.5 -69t68.5 -167z" />
    <glyph glyph-name="ellipsis" unicode="&#x2026;" horiz-adv-x="1458" 
d="M129 88q0 43 31 75t73 32q43 0 75 -32t32 -75q0 -42 -32 -73t-75 -31t-73.5 30.5t-30.5 73.5zM623 88q0 43 31 75t73 32q43 0 75 -32t32 -75q0 -42 -32 -73t-75 -31t-73.5 30.5t-30.5 73.5zM1116 88q0 43 31 75t74 32t74.5 -32t31.5 -75t-31.5 -73.5t-74.5 -30.5
t-74 30.5t-31 73.5z" />
    <glyph glyph-name="perthousand" unicode="&#x2030;" horiz-adv-x="1951" 
d="M1008 1413h116l-839 -1413h-117zM659 260q0 114 82 196.5t197 82.5t198 -82.5t83 -196.5q0 -117 -82.5 -198.5t-198.5 -81.5t-197.5 81.5t-81.5 198.5zM768 260q0 -73 49.5 -123.5t120.5 -50.5q72 0 123 50.5t51 123.5q0 71 -51 121.5t-123 50.5q-70 0 -120 -50.5
t-50 -121.5zM1319 260q0 114 81.5 196.5t196.5 82.5t198 -82.5t83 -196.5q0 -117 -82.5 -198.5t-198.5 -81.5t-197 81.5t-81 198.5zM1427 260q0 -73 49.5 -123.5t120.5 -50.5q72 0 123.5 50.5t51.5 123.5q0 71 -51.5 121.5t-123.5 50.5q-70 0 -120 -50.5t-50 -121.5z
M74 1155q0 114 81.5 196.5t196.5 82.5t198 -82.5t83 -196.5q0 -117 -82.5 -199t-198.5 -82t-197 82t-81 199zM182 1155q0 -73 49.5 -123.5t120.5 -50.5q72 0 123 50.5t51 123.5q0 71 -51 121.5t-123 50.5q-70 0 -120 -50.5t-50 -121.5z" />
    <glyph glyph-name="guilsinglleft" unicode="&#x2039;" horiz-adv-x="589" 
d="M436 920l-293 -338v-25l293 -338l-82 -78l-323 400v57l323 399z" />
    <glyph glyph-name="guilsinglright" unicode="&#x203a;" horiz-adv-x="589" 
d="M446 582l-292 338l82 77l323 -399v-57l-323 -400l-82 78l292 338v25z" />
    <glyph glyph-name="fraction" unicode="&#x2044;" horiz-adv-x="163" 
d="M469 1413h117l-840 -1413h-117z" />
    <glyph glyph-name="uni2070" unicode="&#x2070;" horiz-adv-x="610" 
d="M301 1415q111 0 170 -100q47 -83 47 -199q0 -124 -47 -201q-57 -102 -170 -102q-89 0 -160 100q-49 79 -49 203q0 125 49 201q72 98 160 98zM303 1321q-48 0 -88 -68q-27 -55 -27 -137q0 -86 27 -141q40 -68 88 -68q60 0 92 68q27 55 27 141q0 75 -27 137q-32 68 -92 68z
" />
    <glyph glyph-name="uni2074" unicode="&#x2074;" horiz-adv-x="555" 
d="M406 834h-93v133h-282v69l297 377h78v-360h88v-86h-88v-133zM139 1053h174v219z" />
    <glyph glyph-name="uni2075" unicode="&#x2075;" horiz-adv-x="548" 
d="M88 944l86 23q25 -60 88 -60q34 0 56.5 12.5t32 32.5t13 35t3.5 31q0 33 -24.5 66.5t-68.5 33.5q-69 0 -92 -45l-84 12l37 312h305v-86h-231l-21 -146q15 20 43 32.5t56 12.5q49 0 84.5 -20t53 -52t25 -61t7.5 -57q0 -19 -3 -40.5t-14.5 -53t-31 -55t-57 -41t-87.5 -17.5
q-75 0 -117.5 40t-58.5 91z" />
    <glyph glyph-name="uni2076" unicode="&#x2076;" horiz-adv-x="587" 
d="M463 1307l-76 -39q-25 55 -90 55q-35 0 -60 -22t-35.5 -55t-15 -57t-4.5 -40q8 10 20.5 21.5t40 26.5t54.5 15q82 0 135 -57t53 -141q0 -83 -55.5 -142t-134.5 -59q-124 0 -176 135q-27 70 -27 166q0 126 56.5 213.5t146.5 87.5q39 0 71 -12t51 -31t29.5 -34.5
t16.5 -30.5zM293 1124q-40 0 -68 -32t-28 -76t28 -76.5t68 -32.5q41 0 69.5 32t28.5 77t-28.5 76.5t-69.5 31.5z" />
    <glyph glyph-name="uni2077" unicode="&#x2077;" horiz-adv-x="489" 
d="M246 834h-94v4q0 73 13.5 139.5t30.5 111.5t46.5 92t47 69t46.5 55l10 10v12h-287v86h392v-86q-8 -5 -22 -16.5t-49.5 -53.5t-62.5 -93.5t-49 -140t-22 -189.5z" />
    <glyph glyph-name="uni2078" unicode="&#x2078;" horiz-adv-x="591" 
d="M213 1247q0 -31 24 -51t60 -20t60 20t24 51t-24.5 52.5t-59.5 21.5t-59.5 -21.5t-24.5 -52.5zM197 997q0 -38 29 -64t71 -26t71 26t29 64t-29.5 65.5t-70.5 27.5t-70.5 -27.5t-29.5 -65.5zM102 983q0 46 28 87t73 63q-39 21 -61.5 54.5t-22.5 74.5q0 63 52.5 108
t125.5 45t125.5 -45t52.5 -108q0 -41 -23.5 -76t-62.5 -56q45 -22 72.5 -61.5t27.5 -85.5q0 -70 -57 -120t-137 -50t-136.5 50t-56.5 120z" />
    <glyph glyph-name="uni2079" unicode="&#x2079;" horiz-adv-x="587" 
d="M125 922l76 39q25 -56 90 -56q35 0 60 22t35.5 55t15 57t4.5 40q-8 -10 -20.5 -21.5t-40 -26.5t-54.5 -15q-82 0 -135.5 57t-53.5 141q0 83 56 142t135 59q124 0 176 -135q27 -70 27 -166q0 -126 -56.5 -213.5t-146.5 -87.5q-39 0 -71 12t-51 31.5t-29.5 35t-16.5 30.5z
M295 1104q40 0 68 32t28 76t-28 76.5t-68 32.5q-41 0 -69.5 -32t-28.5 -77t28.5 -76.5t69.5 -31.5z" />
    <glyph glyph-name="uni2080" unicode="&#x2080;" horiz-adv-x="610" 
d="M301 315q111 0 170 -100q47 -83 47 -199q0 -123 -47 -200q-58 -103 -170 -103q-88 0 -160 101q-49 79 -49 202q0 125 49 201q72 98 160 98zM303 221q-49 0 -88 -67q-27 -56 -27 -138q0 -86 27 -141q40 -68 88 -68q60 0 92 68q27 55 27 141q0 76 -27 138q-31 67 -92 67z
" />
    <glyph glyph-name="uni2081" unicode="&#x2081;" horiz-adv-x="403" 
d="M41 123v82q48 0 96.5 33.5t48.5 74.5h90v-579h-94v444q-4 -3 -27.5 -17.5t-34 -19.5t-33 -11.5t-46.5 -6.5z" />
    <glyph glyph-name="uni2082" unicode="&#x2082;" horiz-adv-x="567" 
d="M184 -180h301v-86h-403v61q0 43 58 105.5t143 107.5q47 26 73.5 53t26.5 68q0 43 -28.5 72.5t-69.5 29.5t-69 -29.5t-28 -72.5h-96q0 81 56.5 139t134.5 58q82 0 139 -57.5t57 -139.5q0 -29 -6.5 -53.5t-23.5 -46.5t-29.5 -36t-43.5 -34.5t-44.5 -28.5t-52.5 -30
q-36 -20 -59.5 -40t-29.5 -28.5t-6 -11.5z" />
    <glyph glyph-name="uni2083" unicode="&#x2083;" horiz-adv-x="573" 
d="M242 -10v86h34q35 0 59.5 22t24.5 52q0 28 -24.5 49.5t-59.5 21.5t-60.5 -21.5t-25.5 -49.5h-94q0 77 55 121t128 44q72 0 124 -45.5t52 -111.5q0 -46 -21 -72.5t-65 -52.5q49 -27 75.5 -59.5t26.5 -84.5q0 -73 -57.5 -124.5t-139.5 -51.5q-80 0 -136 52.5t-56 132.5h94
q0 -36 29.5 -63.5t70.5 -27.5t71 27.5t30 63.5q0 37 -30 64.5t-71 27.5h-34z" />
    <glyph glyph-name="uni2084" unicode="&#x2084;" horiz-adv-x="555" 
d="M406 -266h-93v133h-282v70l297 376h78v-360h88v-86h-88v-133zM139 -47h174v219z" />
    <glyph glyph-name="uni2085" unicode="&#x2085;" horiz-adv-x="548" 
d="M88 -156l86 23q25 -60 88 -60q34 0 56.5 12.5t32 32.5t13 35t3.5 31q0 33 -24.5 66.5t-68.5 33.5q-69 0 -92 -45l-84 13l37 311h305v-86h-231l-21 -145q15 20 43 32.5t56 12.5q49 0 84.5 -20.5t53 -52t25 -61t7.5 -57.5q0 -19 -3 -40.5t-14.5 -53t-31 -55t-57 -41
t-87.5 -17.5q-75 0 -117.5 40t-58.5 91z" />
    <glyph glyph-name="uni2086" unicode="&#x2086;" horiz-adv-x="587" 
d="M463 207l-76 -39q-25 55 -90 55q-35 0 -60 -22t-35.5 -55t-15 -57t-4.5 -40q8 10 20.5 22t40 27t54.5 15q82 0 135 -57.5t53 -141.5q0 -83 -55.5 -142t-134.5 -59q-124 0 -176 135q-27 71 -27 166q0 126 56.5 213.5t146.5 87.5q39 0 71 -12t51 -31t29.5 -34.5t16.5 -30.5
zM293 25q-40 0 -68 -32.5t-28 -76.5t28 -76.5t68 -32.5q41 0 69.5 32t28.5 77t-28.5 77t-69.5 32z" />
    <glyph glyph-name="uni2087" unicode="&#x2087;" horiz-adv-x="489" 
d="M246 -266h-94v4q0 73 13.5 139.5t30.5 111.5t46.5 92t47 69t46.5 55l10 10v12h-287v86h392v-86q-8 -5 -22 -16.5t-49.5 -53.5t-62.5 -93.5t-49 -140t-22 -189.5z" />
    <glyph glyph-name="uni2088" unicode="&#x2088;" horiz-adv-x="591" 
d="M213 147q0 -31 24 -51t60 -20t60 20t24 51t-24.5 52.5t-59.5 21.5t-59.5 -21.5t-24.5 -52.5zM197 -102q0 -38 29.5 -64.5t70.5 -26.5t70.5 26.5t29.5 64.5t-29.5 65t-70.5 27t-70.5 -27t-29.5 -65zM102 -117q0 46 28 87t73 63q-39 21 -61.5 54.5t-22.5 74.5
q0 63 52.5 108t125.5 45t125.5 -45t52.5 -108q0 -40 -23.5 -75t-62.5 -56q45 -22 72.5 -62t27.5 -86q0 -70 -57 -120t-137 -50t-136.5 50t-56.5 120z" />
    <glyph glyph-name="uni2089" unicode="&#x2089;" horiz-adv-x="587" 
d="M125 -178l76 39q25 -56 90 -56q35 0 60 22.5t35.5 55t15 57t4.5 40.5q-8 -10 -20.5 -22t-40 -27t-54.5 -15q-82 0 -135.5 57.5t-53.5 141.5q0 83 55.5 141.5t135.5 58.5q124 0 176 -135q27 -70 27 -166q0 -126 -56.5 -213.5t-146.5 -87.5q-39 0 -71 12t-51 31.5t-29.5 35
t-16.5 30.5zM295 4q40 0 68 32.5t28 76.5t-28 76t-68 32q-41 0 -69.5 -31.5t-28.5 -76.5t28.5 -77t69.5 -32z" />
    <glyph glyph-name="Euro" unicode="&#x20ac;" horiz-adv-x="1224" 
d="M139 758h123q42 193 169.5 311t289.5 123q65 0 123 -17.5t94.5 -42.5t63.5 -50t39 -42l12 -18l-39 -121q-23 35 -35 51t-40 45t-54.5 43t-69.5 25.5t-94 11.5q-126 0 -213.5 -86.5t-120.5 -232.5h582l-33 -103h-565q-2 -25 -2 -71q0 -42 2 -62h522l-33 -104h-475
q33 -148 120.5 -234t215.5 -86q107 0 174 46t133 159l84 -84q-13 -21 -28 -41.5t-52.5 -59t-78 -65.5t-103 -48t-129.5 -21q-165 0 -291.5 119t-169.5 315h-154l33 104h107q-2 20 -2 66q0 44 2 67h-140z" />
    <glyph glyph-name="uni2117" unicode="&#x2117;" horiz-adv-x="1114" 
d="M662 676h-162v-240h-92v559h254q67 0 115 -47t48 -112t-48 -112.5t-115 -47.5zM500 909v-149h145q39 0 63.5 21.5t24.5 52.5q0 33 -24.5 54t-63.5 21h-145zM92 705q0 133 65.5 246t178.5 179t246 66t246 -66t179 -179t66 -246t-66 -246t-179 -178.5t-246 -65.5
q-99 0 -190 39t-156.5 104.5t-104.5 156.5t-39 190zM182 705q0 -164 118 -282t282 -118t282.5 118t118.5 282t-118.5 282.5t-282.5 118.5t-282 -118.5t-118 -282.5z" />
    <glyph glyph-name="trademark" unicode="&#x2122;" horiz-adv-x="1245" 
d="M514 1413v-88h-231v-620h-95v620h-229v88h555zM1229 705h-94v571q-27 -91 -70 -203.5t-70 -208.5h-125l-139 412v-571h-94v708h131l166 -483q27 97 83 244.5t83 238.5h129v-708z" />
    <glyph glyph-name="Omega" unicode="&#x2126;" horiz-adv-x="1273" 
d="M381 111v18q-120 113 -199.5 273.5t-79.5 359.5q0 300 151.5 484t389.5 184q159 0 281 -91.5t184.5 -241t62.5 -329.5q0 -142 -44.5 -273t-104 -217t-131.5 -149v-18h270v-111h-444v98q60 44 113 99t104.5 132.5t82 180t30.5 215.5q0 102 -25 202.5t-73 187t-128.5 140.5
t-181.5 54q-127 0 -222 -80t-142.5 -212t-47.5 -296q0 -107 31 -208t82 -179.5t105.5 -136.5t111.5 -99v-98h-444v111h268z" />
    <glyph glyph-name="onethird" unicode="&#x2153;" 
d="M209 1223v82q48 0 96.5 33.5t48.5 74.5h90v-579h-94v444q-4 -3 -27.5 -17.5t-34 -19.5t-33 -11.5t-46.5 -6.5zM979 268v86h35q35 0 59.5 22t24.5 52q0 28 -24.5 50t-59.5 22t-60.5 -22t-25.5 -50h-94q0 77 54.5 121.5t127.5 44.5q72 0 124 -46t52 -112q0 -46 -21 -72.5
t-65 -52.5q50 -27 76 -59t26 -84q0 -73 -57 -124.5t-139 -51.5q-80 0 -136.5 52t-56.5 132h94q0 -36 30 -63t71 -27t70.5 27t29.5 63q0 37 -29.5 64.5t-70.5 27.5h-35zM1026 1413h117l-840 -1413h-117z" />
    <glyph glyph-name="twothirds" unicode="&#x2154;" 
d="M997 268v86h35q35 0 59.5 22t24.5 52q0 28 -24.5 50t-59.5 22t-60.5 -22t-25.5 -50h-94q0 77 54.5 121.5t127.5 44.5q72 0 124 -46t52 -112q0 -46 -21 -72.5t-65 -52.5q50 -27 76.5 -59t26.5 -84q0 -73 -57.5 -124.5t-139.5 -51.5q-80 0 -136 52t-56 132h94
q0 -36 29.5 -63t70.5 -27t71 27t30 63q0 37 -30 64.5t-71 27.5h-35zM272 924h301v-86h-403v61q0 43 58 105.5t143 107.5q47 26 73.5 53t26.5 68q0 43 -28.5 72.5t-69.5 29.5t-69 -29.5t-28 -72.5h-96q0 81 56.5 139t134.5 58q82 0 139 -57.5t57 -139.5q0 -29 -6.5 -53.5
t-23.5 -46.5t-29.5 -36t-43.5 -34.5t-44.5 -28.5t-52.5 -30q-36 -20 -59.5 -40t-29.5 -28.5t-6 -11.5zM1071 1413h117l-840 -1413h-117z" />
    <glyph glyph-name="uni2155" unicode="&#x2155;" 
d="M209 1223v82q48 0 96.5 33.5t48.5 74.5h90v-579h-94v444q-4 -3 -27.5 -17.5t-34 -19.5t-33 -11.5t-46.5 -6.5zM1026 1413h117l-840 -1413h-117zM840 123l86 22q25 -59 88 -59q34 0 56.5 12.5t32 32.5t12.5 35t3 31q0 33 -24 66.5t-68 33.5q-69 0 -92 -45l-84 12l37 311
h305v-86h-231l-21 -145q15 20 42.5 32.5t55.5 12.5q49 0 84.5 -20t53 -52t25 -61t7.5 -57q0 -20 -3 -41t-14.5 -52.5t-30.5 -55t-56.5 -41t-87.5 -17.5q-75 0 -117.5 40t-58.5 91z" />
    <glyph glyph-name="uni2156" unicode="&#x2156;" 
d="M272 924h301v-86h-403v61q0 43 58 105.5t143 107.5q47 26 73.5 53t26.5 68q0 43 -28.5 72.5t-69.5 29.5t-69 -29.5t-28 -72.5h-96q0 81 56.5 139t134.5 58q82 0 139 -57.5t57 -139.5q0 -29 -6.5 -53.5t-23.5 -46.5t-29.5 -36t-43.5 -34.5t-44.5 -28.5t-52.5 -30
q-36 -20 -59.5 -40t-29.5 -28.5t-6 -11.5zM1071 1413h117l-840 -1413h-117zM858 123l86 22q25 -59 88 -59q34 0 56.5 12.5t32 32.5t13 35t3.5 31q0 33 -24.5 66.5t-68.5 33.5q-69 0 -92 -45l-84 12l37 311h305v-86h-231l-21 -145q15 20 43 32.5t56 12.5q49 0 84.5 -20
t53 -52t25 -61t7.5 -57q0 -19 -3 -40.5t-14.5 -53t-31 -55t-57 -41t-87.5 -17.5q-75 0 -117.5 40t-58.5 91z" />
    <glyph glyph-name="uni2157" unicode="&#x2157;" 
d="M334 1104v86h35q35 0 59.5 22t24.5 52q0 28 -24.5 49.5t-59.5 21.5t-60.5 -21.5t-25.5 -49.5h-95q0 77 55 121.5t128 44.5q72 0 124 -46t52 -112q0 -46 -21 -72.5t-65 -52.5q50 -27 76 -59t26 -84q0 -74 -57 -125.5t-139 -51.5q-80 0 -136.5 52.5t-56.5 132.5h94
q0 -36 30 -63t71 -27t70.5 27t29.5 63q0 37 -29.5 64.5t-70.5 27.5h-35zM1026 1413h117l-840 -1413h-117zM838 123l86 22q25 -59 88 -59q34 0 56.5 12.5t32 32.5t12.5 35t3 31q0 33 -24 66.5t-68 33.5q-69 0 -92 -45l-84 12l37 311h305v-86h-232l-20 -145q15 20 42.5 32.5
t55.5 12.5q49 0 84.5 -20t53 -52t25 -61t7.5 -57q0 -20 -3 -41t-14.5 -52.5t-30.5 -55t-56.5 -41t-87.5 -17.5q-75 0 -117.5 40t-58.5 91z" />
    <glyph glyph-name="uni2158" unicode="&#x2158;" 
d="M1026 1413h117l-840 -1413h-117zM451 834h-93v133h-282v69l297 377h78v-360h88v-86h-88v-133zM184 1053h174v219zM838 123l86 22q25 -59 88 -59q34 0 56.5 12.5t32 32.5t12.5 35t3 31q0 33 -24 66.5t-68 33.5q-69 0 -92 -45l-84 12l37 311h305v-86h-232l-20 -145
q15 20 42.5 32.5t55.5 12.5q49 0 84.5 -20t53 -52t25 -61t7.5 -57q0 -20 -3 -41t-14.5 -52.5t-30.5 -55t-56.5 -41t-87.5 -17.5q-75 0 -117.5 40t-58.5 91z" />
    <glyph glyph-name="uni2159" unicode="&#x2159;" 
d="M209 1223v82q48 0 96.5 33.5t48.5 74.5h90v-579h-94v444q-4 -3 -27.5 -17.5t-34 -19.5t-33 -11.5t-46.5 -6.5zM1026 1413h117l-840 -1413h-117zM1184 485l-76 -39q-25 56 -90 56q-35 0 -60 -22t-35.5 -55t-15 -57t-4.5 -40q8 10 20.5 21.5t40 26.5t54.5 15q82 0 135 -57
t53 -141q0 -83 -55.5 -142t-134.5 -59q-124 0 -176 135q-27 71 -27 166q0 126 56.5 213.5t146.5 87.5q39 0 71 -12t51 -31.5t29.5 -35t16.5 -30.5zM1014 303q-40 0 -68 -32t-28 -76t28 -76.5t68 -32.5q41 0 69.5 32t28.5 77t-28.5 76.5t-69.5 31.5z" />
    <glyph glyph-name="uni215A" unicode="&#x215a;" 
d="M1026 1413h117l-840 -1413h-117zM178 961l86 22q25 -59 88 -59q34 0 56.5 12t32 32t13 35t3.5 31q0 34 -24 67.5t-68 33.5q-34 0 -58.5 -13t-34.5 -32l-84 12l37 311h305v-86h-231l-20 -145q15 20 42.5 32.5t55.5 12.5q49 0 84.5 -20.5t53 -52t25 -61t7.5 -57.5
q0 -19 -3 -40.5t-14.5 -53t-31 -55t-57 -41t-87.5 -17.5q-75 0 -117.5 40.5t-58.5 91.5zM1184 485l-76 -39q-25 56 -90 56q-35 0 -60 -22t-35.5 -55t-15 -57t-4.5 -40q8 10 20.5 21.5t40 26.5t54.5 15q82 0 135 -57t53 -141q0 -83 -55.5 -142t-134.5 -59q-124 0 -176 135
q-27 71 -27 166q0 126 56.5 213.5t146.5 87.5q39 0 71 -12t51 -31.5t29.5 -35t16.5 -30.5zM1014 303q-40 0 -68 -32t-28 -76t28 -76.5t68 -32.5q41 0 69.5 32t28.5 77t-28.5 76.5t-69.5 31.5z" />
    <glyph glyph-name="oneeighth" unicode="&#x215b;" 
d="M920 426q0 -31 24.5 -51.5t59.5 -20.5t59 20.5t24 51.5t-24 52.5t-59 21.5t-59.5 -21.5t-24.5 -52.5zM903 176q0 -38 29.5 -64t71.5 -26t71 26t29 64t-29.5 65t-70.5 27t-71 -27t-30 -65zM809 162q0 47 27.5 87t72.5 62q-39 21 -61.5 54.5t-22.5 74.5q0 63 53 108.5
t126 45.5t125.5 -45.5t52.5 -108.5q0 -40 -23.5 -75t-62.5 -56q45 -22 72.5 -61.5t27.5 -85.5q0 -70 -57.5 -120t-137.5 -50t-136 50t-56 120zM178 1223v82q48 0 97 33.5t49 74.5h90v-579h-95v444q-4 -3 -27.5 -17.5t-34 -19.5t-33 -11.5t-46.5 -6.5zM1026 1413h117
l-840 -1413h-117z" />
    <glyph glyph-name="threeeighths" unicode="&#x215c;" 
d="M334 1104v86h35q35 0 59.5 22t24.5 52q0 28 -24.5 49.5t-59.5 21.5t-60.5 -21.5t-25.5 -49.5h-95q0 77 55 121.5t128 44.5q72 0 124 -46t52 -112q0 -46 -21 -72.5t-65 -52.5q50 -27 76 -59t26 -84q0 -74 -57 -125.5t-139 -51.5q-80 0 -136.5 52.5t-56.5 132.5h94
q0 -36 30 -63t71 -27t70.5 27t29.5 63q0 37 -29.5 64.5t-70.5 27.5h-35zM932 426q0 -31 24.5 -51.5t59.5 -20.5t59.5 20.5t24.5 51.5t-24.5 52.5t-59.5 21.5t-59.5 -21.5t-24.5 -52.5zM915 176q0 -38 29.5 -64t71.5 -26t71 26t29 64t-29.5 65t-70.5 27t-71 -27t-30 -65z
M821 162q0 46 28 86.5t73 62.5q-39 21 -61.5 54.5t-22.5 74.5q0 63 52.5 108.5t125.5 45.5t125.5 -45.5t52.5 -108.5q0 -40 -23.5 -75t-62.5 -56q45 -22 72.5 -61.5t27.5 -85.5q0 -70 -57 -120t-137 -50t-136.5 50t-56.5 120zM1026 1413h117l-840 -1413h-117z" />
    <glyph glyph-name="fiveeighths" unicode="&#x215d;" 
d="M932 426q0 -31 24.5 -51.5t59.5 -20.5t59.5 20.5t24.5 51.5t-24.5 52.5t-59.5 21.5t-59.5 -21.5t-24.5 -52.5zM915 176q0 -38 29.5 -64t71.5 -26t71 26t29 64t-29.5 65t-70.5 27t-71 -27t-30 -65zM821 162q0 46 28 86.5t73 62.5q-39 21 -61.5 54.5t-22.5 74.5
q0 63 52.5 108.5t125.5 45.5t125.5 -45.5t52.5 -108.5q0 -40 -23.5 -75t-62.5 -56q45 -22 72.5 -61.5t27.5 -85.5q0 -70 -57 -120t-137 -50t-136.5 50t-56.5 120zM1026 1413h117l-840 -1413h-117zM178 961l86 22q25 -59 88 -59q34 0 56.5 12t32 32t13 35t3.5 31
q0 34 -24 67.5t-68 33.5q-34 0 -58.5 -13t-34.5 -32l-84 12l37 311h305v-86h-231l-20 -145q15 20 42.5 32.5t55.5 12.5q49 0 84.5 -20.5t53 -52t25 -61t7.5 -57.5q0 -19 -3 -40.5t-14.5 -53t-31 -55t-57 -41t-87.5 -17.5q-75 0 -117.5 40.5t-58.5 91.5z" />
    <glyph glyph-name="seveneighths" unicode="&#x215e;" 
d="M950 426q0 -31 24.5 -51.5t59.5 -20.5t59.5 20.5t24.5 51.5t-24.5 52.5t-59.5 21.5t-59.5 -21.5t-24.5 -52.5zM934 176q0 -38 29 -64t71 -26t71.5 26t29.5 64t-30 65t-71 27t-70.5 -27t-29.5 -65zM840 162q0 47 27.5 87t72.5 62q-39 21 -61.5 54.5t-22.5 74.5
q0 63 52.5 108.5t125.5 45.5t125.5 -45.5t52.5 -108.5q0 -40 -23.5 -75t-62.5 -56q45 -22 73 -61.5t28 -85.5q0 -70 -57.5 -120t-137.5 -50t-136 50t-56 120zM414 834h-95v4q0 89 17.5 166t51.5 137t56.5 91t59.5 73l10 10v12h-287v86h391v-86q-8 -5 -22 -16.5t-49 -53.5
t-62 -93.5t-49 -140t-22 -189.5zM1026 1413h117l-840 -1413h-117z" />
    <glyph glyph-name="arrowleft" unicode="&#x2190;" horiz-adv-x="1234" 
d="M578 1001l-256 -294h725v-111h-725l256 -295l-82 -78l-324 400v57l324 399z" />
    <glyph glyph-name="arrowup" unicode="&#x2191;" horiz-adv-x="1232" 
d="M967 682l-295 256v-725h-111v725l-295 -256l-78 82l400 323h57l399 -323z" />
    <glyph glyph-name="arrowright" unicode="&#x2192;" horiz-adv-x="1234" 
d="M913 707l-256 294l82 78l324 -399v-57l-324 -400l-82 78l256 295h-725v111h725z" />
    <glyph glyph-name="arrowdown" unicode="&#x2193;" horiz-adv-x="1232" 
d="M672 362l295 256l77 -81l-399 -324h-57l-400 324l78 81l295 -256v725h111v-725z" />
    <glyph glyph-name="uni2196" unicode="&#x2196;" horiz-adv-x="1124" 
d="M856 905l-391 13l459 -562l-86 -69l-459 561l-66 -383l-112 14l104 502l45 37h514z" />
    <glyph glyph-name="uni2197" unicode="&#x2197;" horiz-adv-x="1124" 
d="M659 918l-391 -13l-8 113h514l45 -37l105 -502l-113 -14l-66 383l-458 -561l-86 69z" />
    <glyph glyph-name="uni2198" unicode="&#x2198;" horiz-adv-x="1124" 
d="M268 399l391 -12l-458 561l86 70l458 -561l66 383l113 -15l-105 -501l-45 -37h-514z" />
    <glyph glyph-name="uni2199" unicode="&#x2199;" horiz-adv-x="1124" 
d="M465 387l391 12l8 -112h-514l-45 37l-104 501l112 15l66 -383l459 561l86 -70z" />
    <glyph glyph-name="partialdiff" unicode="&#x2202;" horiz-adv-x="1236" 
d="M977 682h18q0 2 3 19.5t5.5 38.5t5.5 48t5 57.5t2 57.5q0 96 -16.5 178t-42.5 136.5t-60 98t-66.5 68t-64.5 40t-52.5 21t-31.5 5.5v123q16 0 44 -6.5t72 -25.5t89 -49t91.5 -82t82 -118.5t58 -165t22.5 -215.5q0 -135 -23.5 -266t-74.5 -251t-122.5 -211t-174.5 -145
t-224 -54q-108 0 -202.5 56.5t-152.5 157.5t-58 222q0 68 21 140t64 140.5t101.5 123t140.5 87.5t174 33q118 0 216 -71.5t151 -190.5zM528 98q84 0 156.5 38.5t118 99t71 130.5t25.5 136q0 134 -88.5 227.5t-206.5 93.5q-84 0 -156.5 -38.5t-118 -98.5t-71 -130t-25.5 -136
q0 -134 88.5 -228t206.5 -94z" />
    <glyph glyph-name="Delta" unicode="&#x2206;" horiz-adv-x="1114" 
d="M616 1413l437 -1302v-111h-992v111l437 1302h118zM930 111l-373 1122l-373 -1122h746z" />
    <glyph glyph-name="product" unicode="&#x220f;" horiz-adv-x="1335" 
d="M1092 -98h-123v1409h-596v-1409h-123v1409h-217v110h1270v-110h-211v-1409z" />
    <glyph glyph-name="summation" unicode="&#x2211;" horiz-adv-x="1157" 
d="M74 1309v104h991v-110h-807v-11l600 -585l-600 -586v-10h807v-111h-991v104l602 572v59z" />
    <glyph glyph-name="minus" unicode="&#x2212;" horiz-adv-x="1019" 
d="M92 541v110h836v-110h-836z" />
    <glyph glyph-name="uni2215" unicode="&#x2215;" horiz-adv-x="163" 
d="M469 1413h117l-840 -1413h-117z" />
    <glyph glyph-name="uni2219" unicode="&#x2219;" horiz-adv-x="579" 
d="M184 686q0 43 31 75t74 32t74.5 -32t31.5 -75t-31.5 -73.5t-74.5 -30.5t-74 30.5t-31 73.5z" />
    <glyph glyph-name="radical" unicode="&#x221a;" horiz-adv-x="1079" 
d="M1364 1610h-309l-535 -1626h-112l-340 1036h120l275 -846l508 1546h393v-110z" />
    <glyph glyph-name="infinity" unicode="&#x221e;" horiz-adv-x="1314" 
d="M1217 563q0 -110 -77 -180t-182 -70q-53 0 -103 23.5t-89.5 57.5t-106.5 102q-34 -36 -45 -47t-42 -40t-49.5 -40t-48.5 -27.5t-60 -22.5t-64 -6q-105 0 -178.5 71t-73.5 173q0 107 75 178.5t187 71.5q46 0 88.5 -14.5t82.5 -44.5t67.5 -57t67.5 -70q48 51 73.5 75.5
t66 55t79.5 43t86 12.5q111 0 178.5 -68t67.5 -176zM358 428q90 0 217 117v24q-126 123 -210 123q-59 0 -100.5 -38.5t-41.5 -96.5q0 -54 39.5 -91.5t95.5 -37.5zM1092 561q0 58 -35 94.5t-94 36.5q-89 0 -213 -121v-20q123 -123 204 -123q56 0 97 37.5t41 95.5z" />
    <glyph glyph-name="integral" unicode="&#x222b;" horiz-adv-x="600" 
d="M74 -324v111h41q51 0 88 37t37 88v1591q0 89 65.5 153t151.5 64h69v-110h-43q-51 0 -87 -36t-36 -87v-1593q0 -88 -65.5 -153t-151.5 -65h-69z" />
    <glyph glyph-name="approxequal" unicode="&#x2248;" horiz-adv-x="1075" 
d="M193 582l-91 77q92 101 157.5 135.5t125.5 34.5q40 0 76.5 -10t55.5 -20t50 -29q69 -56 115 -61h-2q27 0 48 4.5t64.5 33.5t90.5 84l90 -77q-92 -101 -157.5 -135.5t-125.5 -34.5q-40 0 -76.5 10t-55.5 20t-50 29q-71 57 -115 62h2q-19 0 -34.5 -3t-41.5 -13.5t-58 -37.5
t-68 -69zM193 289l-91 78q92 101 157.5 135.5t125.5 34.5q40 0 76.5 -10.5t55 -20t50.5 -29.5q69 -56 115 -61h-2q27 0 48.5 5t64.5 34t90 84l90 -78q-92 -101 -157.5 -135.5t-125.5 -34.5q-40 0 -76.5 10t-55.5 20t-50 29q-71 57 -115 62h2q-19 0 -34.5 -3t-41.5 -13.5
t-58 -37.5t-68 -69z" />
    <glyph glyph-name="notequal" unicode="&#x2260;" horiz-adv-x="1015" 
d="M768 983l-104 -219h249v-111h-301l-92 -196h393v-111h-446l-125 -266l-94 49l102 217h-248v111h299l95 196h-394v111h445l129 268z" />
    <glyph glyph-name="lessequal" unicode="&#x2264;" horiz-adv-x="1011" 
d="M860 276l-78 -79l-663 663l663 664l78 -80l-573 -555v-60zM72 -111v111h835v-111h-835z" />
    <glyph glyph-name="greaterequal" unicode="&#x2265;" horiz-adv-x="1011" 
d="M229 197l-77 79l573 553v60l-573 555l77 80l664 -664zM104 -111v111h836v-111h-836z" />
    <glyph glyph-name="dotmath" unicode="&#x22c5;" horiz-adv-x="579" 
d="M184 686q0 43 31 75t74 32t74.5 -32t31.5 -75t-31.5 -73.5t-74.5 -30.5t-74 30.5t-31 73.5z" />
    <glyph glyph-name="lozenge" unicode="&#x25ca;" horiz-adv-x="1163" 
d="M86 666v82l436 763h119l436 -763v-82l-436 -764h-119zM211 688l373 -668l368 668v37l-368 668l-373 -668v-37z" />
    <glyph glyph-name="fi" unicode="&#xfb01;" horiz-adv-x="1216" 
d="M287 1038v117q0 128 89 217.5t216 89.5q96 0 199 -41l-46 -108q-67 35 -151 35q-78 0 -132 -55t-54 -132v-123h323v-110h-323v-928h-121v928h-246v110h246zM938 0v1038h121v-1038h-121zM907 1315q0 37 27 64.5t65 27.5q37 0 65 -27.5t28 -64.5q0 -38 -28 -65t-65 -27
q-38 0 -65 27t-27 65z" />
    <glyph glyph-name="fl" unicode="&#xfb02;" horiz-adv-x="1218" 
d="M938 0v1425h121v-1425h-121zM287 1038v117q0 128 89 217.5t216 89.5q96 0 199 -41l-46 -108q-67 35 -151 35q-78 0 -132 -55t-54 -132v-123h323v-110h-323v-928h-121v928h-246v110h246z" />
    <glyph glyph-name="zero.numr" horiz-adv-x="610" 
d="M301 1415q111 0 170 -100q47 -83 47 -199q0 -124 -47 -201q-57 -102 -170 -102q-89 0 -160 100q-49 79 -49 203q0 125 49 201q72 98 160 98zM303 1321q-48 0 -88 -68q-27 -55 -27 -137q0 -86 27 -141q40 -68 88 -68q60 0 92 68q27 55 27 141q0 75 -27 137q-32 68 -92 68z
" />
    <glyph glyph-name="one.numr" horiz-adv-x="403" 
d="M41 1223v82q48 0 96.5 33.5t48.5 74.5h90v-579h-94v444q-4 -3 -27.5 -17.5t-34 -19.5t-33 -11.5t-46.5 -6.5z" />
    <glyph glyph-name="two.numr" horiz-adv-x="567" 
d="M184 920h301v-86h-403v61q0 43 58 105.5t143 107.5q47 26 73.5 53t26.5 68q0 43 -28.5 72.5t-69.5 29.5t-69 -29.5t-28 -72.5h-96q0 81 56.5 138.5t134.5 57.5q82 0 139 -57t57 -139q0 -25 -6.5 -47.5t-14 -39.5t-26 -35.5t-30 -29t-39 -28t-40 -25t-44.5 -25.5
q-36 -20 -59.5 -39.5t-29.5 -28t-6 -11.5z" />
    <glyph glyph-name="three.numr" horiz-adv-x="573" 
d="M242 1090v86h34q35 0 59.5 21.5t24.5 51.5q0 28 -24.5 50t-59.5 22t-60.5 -22t-25.5 -50h-94q0 77 55 121.5t128 44.5q72 0 124 -46t52 -112q0 -46 -21 -72t-65 -52q49 -27 75.5 -59.5t26.5 -84.5q0 -73 -57.5 -124.5t-139.5 -51.5q-80 0 -136 52t-56 132h94
q0 -36 29.5 -63t70.5 -27t71 27t30 63q0 37 -30 65t-71 28h-34z" />
    <glyph glyph-name="four.numr" horiz-adv-x="555" 
d="M406 834h-93v133h-282v69l297 377h78v-360h88v-86h-88v-133zM139 1053h174v219z" />
    <glyph glyph-name="five.numr" horiz-adv-x="548" 
d="M88 944l86 23q25 -60 88 -60q34 0 56.5 12.5t32 32.5t13 35t3.5 31q0 33 -24.5 66.5t-68.5 33.5q-69 0 -92 -45l-84 12l37 312h305v-86h-231l-21 -146q15 20 43 32.5t56 12.5q49 0 84.5 -20t53 -52t25 -61t7.5 -57q0 -19 -3 -40.5t-14.5 -53t-31 -55t-57 -41t-87.5 -17.5
q-75 0 -117.5 40t-58.5 91z" />
    <glyph glyph-name="six.numr" horiz-adv-x="587" 
d="M463 1307l-76 -39q-25 55 -90 55q-35 0 -60 -22t-35.5 -55t-15 -57t-4.5 -40q8 10 20.5 21.5t40 26.5t54.5 15q82 0 135 -57t53 -141q0 -83 -55.5 -142t-134.5 -59q-124 0 -176 135q-27 70 -27 166q0 126 56.5 213.5t146.5 87.5q39 0 71 -12t51 -31t29.5 -34.5
t16.5 -30.5zM293 1124q-40 0 -68 -32t-28 -76t28 -76.5t68 -32.5q41 0 69.5 32t28.5 77t-28.5 76.5t-69.5 31.5z" />
    <glyph glyph-name="seven.numr" horiz-adv-x="489" 
d="M246 834h-94v4q0 73 13.5 139.5t30.5 111.5t46.5 92t47 69t46.5 55l10 10v12h-287v86h392v-86q-8 -5 -22 -16.5t-49.5 -53.5t-62.5 -93.5t-49 -140t-22 -189.5z" />
    <glyph glyph-name="eight.numr" horiz-adv-x="591" 
d="M213 1247q0 -31 24 -51t60 -20t60 20t24 51t-24.5 52.5t-59.5 21.5t-59.5 -21.5t-24.5 -52.5zM197 997q0 -38 29 -64t71 -26t71 26t29 64t-29.5 65.5t-70.5 27.5t-70.5 -27.5t-29.5 -65.5zM102 983q0 46 28 87t73 63q-39 21 -61.5 54.5t-22.5 74.5q0 63 52.5 108
t125.5 45t125.5 -45t52.5 -108q0 -41 -23.5 -76t-62.5 -56q45 -22 72.5 -61.5t27.5 -85.5q0 -70 -57 -120t-137 -50t-136.5 50t-56.5 120z" />
    <glyph glyph-name="nine.numr" horiz-adv-x="587" 
d="M125 922l76 39q25 -56 90 -56q35 0 60 22t35.5 55t15 57t4.5 40q-8 -10 -20.5 -21.5t-40 -26.5t-54.5 -15q-82 0 -135.5 57t-53.5 141q0 83 56 142t135 59q124 0 176 -135q27 -70 27 -166q0 -126 -56.5 -213.5t-146.5 -87.5q-39 0 -71 12t-51 31.5t-29.5 35t-16.5 30.5z
M295 1104q40 0 68 32t28 76t-28 76.5t-68 32.5q-41 0 -69.5 -32t-28.5 -77t28.5 -76.5t69.5 -31.5z" />
    <glyph glyph-name="zero.dnom" horiz-adv-x="610" 
d="M301 582q111 0 170 -101q47 -83 47 -198q0 -124 -47 -201q-57 -102 -170 -102q-89 0 -160 100q-49 79 -49 203t49 200q73 99 160 99zM303 487q-49 0 -88 -67q-27 -56 -27 -137q0 -87 27 -142q39 -67 88 -67q61 0 92 67q27 55 27 142q0 75 -27 137q-31 67 -92 67z" />
    <glyph glyph-name="one.dnom" horiz-adv-x="403" 
d="M41 389v82q48 0 96.5 34t48.5 75h90v-580h-94v444q-4 -3 -27.5 -17.5t-34 -19.5t-33 -11.5t-46.5 -6.5z" />
    <glyph glyph-name="two.dnom" horiz-adv-x="567" 
d="M184 86h301v-86h-403v61q0 43 58 105.5t143 107.5q47 26 73.5 53t26.5 68q0 43 -28.5 73t-69.5 30t-69 -30t-28 -73h-96q0 81 56.5 139t134.5 58q82 0 139 -57.5t57 -139.5q0 -29 -6.5 -53.5t-23.5 -46.5t-29.5 -36t-43.5 -34.5t-44.5 -28.5t-52.5 -30q-36 -20 -59.5 -40
t-29.5 -28.5t-6 -11.5z" />
    <glyph glyph-name="three.dnom" horiz-adv-x="573" 
d="M242 256v86h34q35 0 59.5 22t24.5 52q0 28 -24.5 49.5t-59.5 21.5t-60.5 -21.5t-25.5 -49.5h-94q0 77 55 121.5t128 44.5q72 0 124 -46t52 -112q0 -46 -21 -72.5t-65 -52.5q50 -27 76 -59t26 -84q0 -73 -57.5 -124.5t-139.5 -51.5q-80 0 -136 52t-56 132h94
q0 -36 29.5 -63t70.5 -27t71 27t30 63q0 37 -30 64.5t-71 27.5h-34z" />
    <glyph glyph-name="four.dnom" horiz-adv-x="555" 
d="M406 0h-93v133h-282v70l297 377h78v-361h88v-86h-88v-133zM139 219h174v219z" />
    <glyph glyph-name="five.dnom" horiz-adv-x="548" 
d="M88 111l86 22q25 -59 88 -59q34 0 56.5 12t32 32t13 35t3.5 31q0 33 -24.5 67t-68.5 34q-69 0 -92 -45l-84 12l37 311h305v-86h-231l-21 -145q15 20 43 32.5t56 12.5q49 0 84.5 -20.5t53 -52t25 -61t7.5 -57.5q0 -19 -3 -40.5t-14.5 -52.5t-31 -55t-57 -41t-87.5 -17
q-75 0 -117.5 40t-58.5 91z" />
    <glyph glyph-name="six.dnom" horiz-adv-x="587" 
d="M463 473l-76 -39q-25 55 -90 55q-35 0 -60 -22t-35.5 -55t-15 -57t-4.5 -40q8 10 20.5 22t40 27t54.5 15q82 0 135 -57.5t53 -141.5q0 -83 -55.5 -141.5t-134.5 -58.5q-124 0 -176 135q-27 71 -27 166q0 126 56.5 213.5t146.5 87.5q39 0 71 -12t51 -31.5t29.5 -35
t16.5 -30.5zM293 291q-40 0 -68 -32.5t-28 -76.5t28 -76t68 -32q41 0 69.5 31.5t28.5 76.5t-28.5 77t-69.5 32z" />
    <glyph glyph-name="seven.dnom" horiz-adv-x="489" 
d="M246 0h-94v4q0 73 13.5 139.5t30.5 111.5t46.5 92t47 69t46.5 55l10 10v13h-287v86h392v-86q-8 -5 -22 -16.5t-49.5 -54t-62.5 -94t-49 -140t-22 -189.5z" />
    <glyph glyph-name="eight.dnom" horiz-adv-x="591" 
d="M213 414q0 -31 24.5 -51.5t59.5 -20.5t59.5 20.5t24.5 51.5t-24.5 52t-59.5 21t-59.5 -21t-24.5 -52zM197 164q0 -38 29 -64t71 -26t71 26t29 64t-29.5 65t-70.5 27t-70.5 -27t-29.5 -65zM102 150q0 46 28 86.5t73 62.5q-39 21 -61.5 54.5t-22.5 74.5q0 63 52.5 108.5
t125.5 45.5t125.5 -45.5t52.5 -108.5q0 -40 -23.5 -75t-62.5 -56q45 -22 72.5 -61.5t27.5 -85.5q0 -70 -57 -120t-137 -50t-136.5 50t-56.5 120z" />
    <glyph glyph-name="nine.dnom" horiz-adv-x="587" 
d="M125 88l76 39q25 -55 90 -55q35 0 60 22t35.5 55t15 57t4.5 40q-8 -10 -20.5 -22t-40 -27t-54.5 -15q-82 0 -135.5 57.5t-53.5 141.5q0 83 56 142t135 59q124 0 176 -136q27 -70 27 -165q0 -126 -56.5 -213.5t-146.5 -87.5q-39 0 -71 12t-51 31t-29.5 34.5t-16.5 30.5z
M295 270q40 0 68 32.5t28 76.5t-28 76t-68 32q-41 0 -69.5 -31.5t-28.5 -76.5t28.5 -77t69.5 -32z" />
    <glyph glyph-name="space.frac" horiz-adv-x="88" 
 />
    <glyph glyph-name="numbersign.lf" horiz-adv-x="1511" 
d="M500 20h-107l49 361h-299l15 111h299l53 389h-303l14 110h303l49 357h107l-49 -357h327l50 357h106l-49 -357h303l-14 -110h-303l-54 -389h308l-15 -111h-307l-49 -361h-107l50 361h-328zM616 881l-53 -389h328l53 389h-328z" />
    <glyph glyph-name="dollar.lf" horiz-adv-x="1298" 
d="M588 -219v225q-164 21 -285 113q-75 57 -132.5 147t-80.5 187h127q55 -176 170 -258q112 -80 291 -80q196 0 293 69q108 80 108 234q0 71 -57 125q-78 75 -221 94l-334 45q-143 20 -240 109q-96 96 -96 229q0 168 156 270q129 87 301 94v215h114v-219q151 -15 252 -82
q133 -89 203 -288h-131q-58 137 -154 198q-92 60 -258 60q-134 0 -243 -64q-117 -84 -117 -194q0 -80 59 -136q63 -60 164 -73l336 -41q202 -25 311 -146q80 -87 80 -202q0 -200 -143 -310q-129 -99 -359 -102v-219h-114z" />
    <glyph glyph-name="plus.lf" horiz-adv-x="1075" 
d="M92 653v111h385v389h121v-389h385v-111h-385v-393h-121v393h-385z" />
    <glyph glyph-name="zero.lf" horiz-adv-x="1198" 
d="M600 1315q-155 0 -250 -178q-88 -164 -88 -426q0 -264 88 -432q95 -181 250 -181q153 0 248 181q88 168 88 432q0 262 -88 426q-95 178 -248 178zM602 1430q205 0 336 -211q123 -193 123 -508q0 -316 -123 -516q-129 -211 -336 -211q-213 0 -342 211q-123 200 -123 516
q0 315 123 508q131 211 342 211z" />
    <glyph glyph-name="one.lf" horiz-adv-x="706" 
d="M389 0v1194h-14q-64 -66 -152.5 -111t-177.5 -45v113q82 0 162 37t131 98t51 127h121v-1413h-121z" />
    <glyph glyph-name="two.lf" horiz-adv-x="1093" 
d="M225 1018h-125v18q0 33 13 79t44.5 102t77.5 103t120 78.5t163 31.5q81 0 152.5 -28t120 -71.5t84.5 -96.5t52.5 -104t16.5 -94v-4q0 -49 -6 -91t-28.5 -97.5t-60.5 -102.5t-107.5 -97t-163.5 -91q-155 -68 -240 -153.5t-109 -215.5v-73h768v-111h-911v12q0 166 48.5 286
t141.5 202.5t248 154.5q81 37 138.5 77t87 73t46 72.5t20 65.5t3.5 63v12q0 41 -19.5 90.5t-55 96.5t-95 78.5t-129.5 31.5q-64 0 -116.5 -24t-84.5 -58.5t-54.5 -77t-31 -77t-8.5 -60.5z" />
    <glyph glyph-name="three.lf" horiz-adv-x="1110" 
d="M549 -16q-171 0 -299 104t-148 260h127q19 -108 110 -179t212 -71q135 0 230.5 87.5t95.5 213.5q0 122 -92 211.5t-220 89.5h-141v113h127q119 0 203 73t84 177q0 106 -84 180t-203 74t-202.5 -73t-84.5 -179l-123 39q17 138 134.5 232t273.5 94q171 0 292.5 -106.5
t121.5 -258.5q0 -87 -58.5 -166.5t-148.5 -132.5v-16q106 -59 175.5 -153.5t69.5 -199.5q0 -113 -60.5 -208t-164.5 -150t-227 -55z" />
    <glyph glyph-name="four.lf" horiz-adv-x="1099" 
d="M33 395v84l678 934h153v-907h195v-111h-195v-395h-121v395h-710zM739 1262q-115 -160 -287.5 -389.5t-271.5 -366.5h563v756h-4z" />
    <glyph glyph-name="five.lf" horiz-adv-x="1069" 
d="M92 387l123 19q1 -6 2.5 -17.5t9.5 -43.5t20.5 -61t37 -64.5t56.5 -61t81.5 -43t109.5 -17.5q61 0 111 17.5t83 45t57.5 66t37.5 75t21 77.5t10 67.5t2 51.5q0 39 -6.5 81t-25.5 92t-48.5 88.5t-80 64.5t-115.5 26q-58 0 -113 -27.5t-90 -64t-56.5 -67t-23.5 -42.5
l-145 17l71 747h699v-110h-586q-4 -38 -23.5 -212t-27.5 -266h6q53 62 129.5 106t165.5 44q94 0 167 -34.5t115 -85.5t69 -117.5t36.5 -123t9.5 -110.5q0 -32 -3 -67t-14 -88t-29.5 -100t-53 -97t-80 -86t-115 -59t-154.5 -23q-74 0 -137.5 19t-106.5 49t-78 70.5t-55.5 78
t-35 78t-20 65t-7.5 43.5z" />
    <glyph glyph-name="six.lf" horiz-adv-x="1189" 
d="M612 829q-135 0 -230 -107t-95 -259t95 -258.5t230 -106.5q137 0 232.5 106.5t95.5 258.5t-96 259t-232 107zM1049 1114l-111 -39q-87 240 -320 240q-170 0 -270 -175t-100 -454h8q57 114 149 186t199 72q128 0 234.5 -65.5t166.5 -177t60 -244.5q0 -97 -35.5 -184.5
t-95.5 -150.5t-143.5 -100.5t-176.5 -37.5q-150 0 -260.5 84.5t-171.5 240.5q-59 160 -59 396q0 200 58 363.5t171.5 262.5t261.5 99q315 0 435 -316z" />
    <glyph glyph-name="seven.lf" horiz-adv-x="911" 
d="M385 0h-123v6q0 187 31.5 365.5t77.5 310.5t109.5 253.5t116 197t108.5 139.5v31h-664v110h848v-115q-11 -9 -29 -26t-70.5 -78t-100 -130.5t-105.5 -183.5t-100 -237.5t-70.5 -291t-28.5 -345.5v-6z" />
    <glyph glyph-name="eight.lf" horiz-adv-x="1105" 
d="M102 397q0 106 68.5 200.5t175.5 152.5v14q-91 55 -148 133.5t-57 167.5q0 151 121 258t289 107q171 0 292.5 -106.5t121.5 -258.5q0 -87 -58.5 -166.5t-148.5 -132.5v-16q106 -59 176 -153.5t70 -199.5q0 -113 -60.5 -208t-165 -150t-227.5 -55q-185 0 -317 121
t-132 292zM227 399q0 -126 95.5 -213.5t230.5 -87.5t230.5 87.5t95.5 213.5q0 122 -92 211.5t-220 89.5h-28q-131 -6 -221.5 -93t-90.5 -208zM266 1063q0 -104 84 -177t203 -73t203 73t84 177q0 106 -84 180t-203 74t-203 -74t-84 -180z" />
    <glyph glyph-name="nine.lf" horiz-adv-x="1185" 
d="M575 584q135 0 230.5 107t95.5 259t-95.5 258.5t-230.5 106.5q-136 0 -231.5 -106.5t-95.5 -258.5t95.5 -259t231.5 -107zM139 299l111 39q87 -240 319 -240q170 0 270.5 175t100.5 454h-8q-57 -114 -149 -186t-199 -72q-128 0 -234.5 65.5t-166.5 177t-60 244.5
q0 197 131 335.5t319 138.5q150 0 261 -85t172 -241q59 -160 59 -395q0 -200 -58.5 -363.5t-172 -262.5t-261.5 -99q-315 0 -434 315z" />
    <glyph glyph-name="less.lf" horiz-adv-x="876" 
d="M772 166l-78 -80l-663 664l663 663l78 -80l-573 -555v-59z" />
    <glyph glyph-name="equal.lf" horiz-adv-x="1015" 
d="M102 807v111h811v-111h-811zM102 500v110h811v-110h-811z" />
    <glyph glyph-name="greater.lf" horiz-adv-x="876" 
d="M182 86l-78 80l574 553v59l-574 555l78 80l664 -663z" />
    <glyph glyph-name="asciitilde.lf" horiz-adv-x="1034" 
d="M373 571q-87 0 -201 -133l-90 78q92 101 157.5 135.5t125.5 34.5q45 0 83 -13.5t63 -32.5t48 -38t49 -32.5t54 -14.5q86 0 200 133l90 -78q-93 -101 -157.5 -135.5t-124.5 -34.5q-45 0 -83 13.5t-63 33t-47.5 38.5t-48.5 32.5t-55 13.5z" />
    <glyph glyph-name="cent.lf" horiz-adv-x="1146" 
d="M541 0v158q-186 21 -309 167.5t-123 366.5t123.5 368t308.5 167v164h100v-164q154 -17 268.5 -128t147.5 -280h-129q-30 120 -107.5 198t-179.5 95v-838q92 14 164 77t108 163h131q-44 -150 -153 -245.5t-250 -110.5v-158h-100zM233 692q0 -170 87.5 -284.5t220.5 -133.5
v838q-133 -21 -220.5 -136.5t-87.5 -283.5z" />
    <glyph glyph-name="sterling.lf" horiz-adv-x="1196" 
d="M905 702h-479q25 -141 25 -262q0 -133 -127 -260q57 17 84 17q101 0 219 -41q115 -39 190 -39q69 0 111.5 41t42.5 102h121q0 -109 -75.5 -184.5t-182.5 -75.5q-94 0 -226 47q-129 45 -198 45q-48 0 -91.5 -12.5t-70.5 -27.5t-80 -48l-8 -4l-58 86q9 5 24 14.5t54 43.5
t68.5 73t53.5 102.5t24 131.5q0 90 -25 251h-199v111h185q-37 220 -37 309q0 59 24 110t63 86.5t89.5 61t103 38t103.5 12.5q81 0 148 -23.5t107.5 -58t69 -75t39.5 -72.5t11 -52h-123q0 6 -7.5 23t-26.5 42t-46 48t-73 39t-101 16q-58 0 -116 -23.5t-100 -73.5t-42 -116
q0 -76 35 -291h497v-111z" />
    <glyph glyph-name="currency.lf" horiz-adv-x="1085" 
d="M236 915l-117 113l88 88l115 -115q100 74 223 74q119 0 219 -74l115 115l88 -88l-119 -113q67 -92 67 -206q0 -117 -69 -215l121 -113l-88 -88l-119 115q-96 -68 -215 -68q-124 0 -219 70l-119 -117l-88 88l121 113q-70 95 -70 215q0 111 66 206zM287 705q0 -106 75 -181
t181 -75t181 75t75 181t-75 181t-181 75t-181 -75t-75 -181z" />
    <glyph glyph-name="yen.lf" horiz-adv-x="1163" 
d="M215 610v111h240l-430 672h145l412 -668l411 668h146l-428 -672h237v-111h-303v-207h303v-110h-303v-293h-125v293h-305v110h305v207h-305z" />
    <glyph glyph-name="section.lf" horiz-adv-x="966" 
d="M621 416h18q62 30 92.5 70.5t30.5 101.5q0 28 -14 57.5t-36.5 52.5t-33.5 33t-21 17l-311 249h-18q-62 -30 -92.5 -70.5t-30.5 -101.5q0 -28 14 -57t36 -52t33 -32.5t21 -17.5zM80 838q0 143 188 231q-80 84 -80 154q0 86 85.5 146.5t207.5 60.5q123 0 210 -60.5
t87 -146.5h-125q0 38 -50.5 65t-121.5 27q-73 0 -121.5 -28t-48.5 -77q0 -38 84 -106l338 -270q154 -121 154 -259q0 -145 -191 -233q82 -82 82 -152q0 -86 -85.5 -146t-207.5 -60q-123 0 -210 60t-87 146h125q0 -38 50.5 -65t121.5 -27q74 0 122 27.5t48 77.5q0 38 -84 106
l-338 271q-153 120 -153 258z" />
    <glyph glyph-name="logicalnot.lf" horiz-adv-x="999" 
d="M92 653v111h795v-371h-121v260h-674z" />
    <glyph glyph-name="plusminus.lf" horiz-adv-x="1024" 
d="M92 748v110h361v365h120v-365h359v-110h-359v-369h-120v369h-361zM96 150v110h836v-110h-836z" />
    <glyph glyph-name="multiply.lf" horiz-adv-x="1032" 
d="M102 1040l80 80l314 -325h39l315 325l80 -80l-326 -315v-39l326 -313l-80 -80l-315 325h-39l-314 -325l-80 80l326 313v39z" />
    <glyph glyph-name="divide.lf" horiz-adv-x="995" 
d="M92 649v115h811v-115h-811zM403 1026q0 37 27.5 64.5t65.5 27.5q37 0 64.5 -27.5t27.5 -64.5q0 -38 -27.5 -65t-64.5 -27q-38 0 -65.5 27t-27.5 65zM403 387q0 37 27.5 64.5t65.5 27.5q37 0 64.5 -27.5t27.5 -64.5q0 -38 -27.5 -65t-64.5 -27q-38 0 -65.5 27t-27.5 65z
" />
    <glyph glyph-name="florin.lf" horiz-adv-x="1165" 
d="M354 90l131 770h-278l18 107h279l37 227q21 129 114.5 198.5t235.5 69.5q134 0 237 -53l-65 -104q-68 38 -166 38q-197 0 -229 -184l-33 -192h352l-18 -107h-351l-137 -805q-23 -132 -117.5 -200t-236.5 -68q-139 0 -240 55l68 107q77 -41 174 -41q193 0 225 182z" />
    <glyph glyph-name="Euro.lf" horiz-adv-x="1372" 
d="M954 518h-563q35 -157 119 -258q123 -156 332 -156q161 0 264 95q71 65 115 168l90 -91q-51 -93 -123 -161q-146 -131 -346 -131q-124 0 -233 50.5t-191 145.5q-118 133 -158 338h-184l55 111h115q-2 25 -2 78q0 50 2 75h-170l55 111h129q40 202 160 340q80 94 189 145.5
t233 51.5q188 0 340 -130q54 -49 104 -124l-65 -134q-48 108 -121 175q-108 92 -258 92q-207 0 -332 -158q-84 -104 -119 -258h754l-55 -111h-715q-2 -27 -2 -77q0 -51 2 -76h635z" />
    <glyph glyph-name="minus.lf" horiz-adv-x="1019" 
d="M92 653v111h836v-111h-836z" />
    <glyph glyph-name="infinity.lf" horiz-adv-x="1314" 
d="M1217 563q0 -110 -77 -180t-182 -70q-53 0 -103 23.5t-89.5 57.5t-106.5 102q-34 -36 -45 -47t-42 -40t-49.5 -40t-48.5 -27.5t-60 -22.5t-64 -6q-105 0 -178.5 71t-73.5 173q0 107 75 178.5t187 71.5q46 0 88.5 -14.5t82.5 -44.5t67.5 -57t67.5 -70q48 51 73.5 75.5
t66 55t79.5 43t86 12.5q111 0 178.5 -68t67.5 -176zM358 428q90 0 217 117v24q-126 123 -210 123q-59 0 -100.5 -38.5t-41.5 -96.5q0 -54 39.5 -91.5t95.5 -37.5zM1092 561q0 58 -35 94.5t-94 36.5q-89 0 -213 -121v-20q123 -123 204 -123q56 0 97 37.5t41 95.5z" />
    <glyph glyph-name="approxequal.lf" horiz-adv-x="1075" 
d="M193 582l-91 77q92 101 157.5 135.5t125.5 34.5q40 0 76.5 -10t55.5 -20t50 -29q69 -56 115 -61h-2q27 0 48 4.5t64.5 33.5t90.5 84l90 -77q-92 -101 -157.5 -135.5t-125.5 -34.5q-40 0 -76.5 10t-55.5 20t-50 29q-71 57 -115 62h2q-19 0 -34.5 -3t-41.5 -13.5t-58 -37.5
t-68 -69zM193 289l-91 78q92 101 157.5 135.5t125.5 34.5q40 0 76.5 -10.5t55 -20t50.5 -29.5q69 -56 115 -61h-2q27 0 48.5 5t64.5 34t90 84l90 -78q-92 -101 -157.5 -135.5t-125.5 -34.5q-40 0 -76.5 10t-55.5 20t-50 29q-71 57 -115 62h2q-19 0 -34.5 -3t-41.5 -13.5
t-58 -37.5t-68 -69z" />
    <glyph glyph-name="notequal.lf" horiz-adv-x="1015" 
d="M768 983l-104 -219h249v-111h-301l-92 -196h393v-111h-446l-125 -266l-94 49l102 217h-248v111h299l95 196h-394v111h445l129 268z" />
    <glyph glyph-name="commaaccent.case" horiz-adv-x="425" 
d="M111 -197q0 40 30.5 69.5t69.5 29.5q46 0 75 -31t29 -86v-14q0 -38 -23.5 -84.5t-47 -76.5t-58.5 -69l-59 56q65 62 80 112q-36 0 -66 28.5t-30 65.5z" />
    <glyph glyph-name="parenleft.case" horiz-adv-x="573" 
d="M555 -215h-113q-35 49 -70 103.5t-82.5 148.5t-82 189t-59.5 219.5t-25 244.5v6q1 123 27 251t61 224t83.5 192.5t81.5 150t68 102.5h113q-12 -17 -32.5 -47t-72.5 -128t-92 -200t-73.5 -251.5t-34.5 -293.5v-4q0 -142 31 -288t76 -252.5t89.5 -192.5t75.5 -130z" />
    <glyph glyph-name="parenright.case" horiz-adv-x="573" 
d="M131 -215h-113q12 16 32.5 46t73 126.5t92.5 196.5t73 248t33 290v4q-1 105 -18 212.5t-44.5 195.5t-60 169.5t-64.5 142.5t-59 107t-44 69l-16 24h113q35 -50 68 -103t82 -149.5t84 -192.5t61 -224t27 -251v-6q0 -120 -25 -244.5t-60 -219.5t-82.5 -189t-82 -148.5
t-70.5 -103.5z" />
    <glyph glyph-name="hyphen.case" horiz-adv-x="755" 
d="M115 643v111h528v-111h-528z" />
    <glyph glyph-name="bracketleft.case" horiz-adv-x="643" 
d="M584 1610v-111h-211v-1597h211v-111h-332v1819h332z" />
    <glyph glyph-name="bracketright.case" horiz-adv-x="643" 
d="M59 1499v111h332v-1819h-332v111h211v1597h-211z" />
    <glyph glyph-name="grave.case" horiz-adv-x="686" 
d="M520 1524l-397 164l63 137l377 -205z" />
    <glyph glyph-name="braceleft.case" horiz-adv-x="552" 
d="M344 471v-424q0 -36 1 -56t5.5 -42.5t15 -32.5t27.5 -10h70v-115h-70q-62 0 -101.5 41.5t-55 105t-15.5 150.5v358q0 136 -151 199v129q151 50 151 201v379q0 139 36.5 197.5t133.5 58.5h72v-115h-70q-34 0 -41.5 -40t-7.5 -146v-359q0 -184 -125 -243q125 -70 125 -236z
" />
    <glyph glyph-name="braceright.case" horiz-adv-x="552" 
d="M188 47v424q0 166 125 236q-125 59 -125 243v359q0 106 -7.5 146t-41.5 40h-69v115h71q97 0 133.5 -58.5t36.5 -197.5v-379q0 -151 152 -201v-129q-152 -64 -152 -199v-358q0 -87 -15.5 -150.5t-55 -105t-101.5 -41.5h-69v115h69q17 0 27.5 10t15 32.5t5.5 42.5t1 56z
" />
    <glyph glyph-name="dieresis.case" horiz-adv-x="835" 
d="M123 1688q0 40 28 69t68 29t69 -29t29 -69t-29 -68.5t-69 -28.5t-68 28.5t-28 68.5zM518 1688q0 40 28 69t68 29t69.5 -29t29.5 -69t-29.5 -68.5t-69.5 -28.5t-68 28.5t-28 68.5z" />
    <glyph glyph-name="guillemotleft.case" horiz-adv-x="1048" 
d="M451 1001l-293 -337v-25l293 -338l-82 -78l-324 400v57l324 399zM860 1001l-293 -337v-25l293 -338l-82 -78l-323 400v57l323 399z" />
    <glyph glyph-name="uni00AD.case" 
 />
    <glyph glyph-name="macron.case" horiz-adv-x="827" 
d="M123 1630v117h582v-117h-582z" />
    <glyph glyph-name="acute.case" horiz-adv-x="686" 
d="M563 1688l-397 -164l-43 96l377 205z" />
    <glyph glyph-name="cedilla.case" horiz-adv-x="634" 
d="M252 0h125v-70q61 -20 98 -68t37 -104q0 -78 -59.5 -134t-143.5 -56q-74 0 -123 36.5t-63 73.5l110 56q28 -51 74 -51q31 0 53.5 20.5t22.5 54.5q0 49 -39.5 68.5t-91.5 19.5v154z" />
    <glyph glyph-name="guillemotright.case" horiz-adv-x="1048" 
d="M891 664l-293 337l82 78l324 -399v-57l-324 -400l-82 78l293 338v25zM481 664l-293 337l82 78l324 -399v-57l-324 -400l-82 78l293 338v25z" />
    <glyph glyph-name="circumflex.case" horiz-adv-x="876" 
d="M387 1841h102l265 -211l-84 -96l-232 186l-231 -186l-84 96z" />
    <glyph glyph-name="caron.case" horiz-adv-x="876" 
d="M489 1534h-102l-264 211l84 96l231 -186l232 186l84 -96z" />
    <glyph glyph-name="breve.case" horiz-adv-x="851" 
d="M250 1835q0 -71 53 -123.5t123 -52.5q72 0 124 52.5t52 123.5v4h127q0 -124 -89 -212.5t-214 -88.5t-214 88.5t-89 212.5h127v-4z" />
    <glyph glyph-name="dotaccent.case" horiz-adv-x="440" 
d="M123 1688q0 40 28 69t68 29t69 -29t29 -69t-29 -68.5t-69 -28.5t-68 28.5t-28 68.5z" />
    <glyph glyph-name="ring.case" horiz-adv-x="675" 
d="M123 1688q0 88 63.5 150.5t153.5 62.5q88 0 150.5 -62.5t62.5 -150.5q0 -91 -62.5 -154.5t-150.5 -63.5q-91 0 -154 63.5t-63 154.5zM229 1688q0 -47 32 -79t79 -32q44 0 75 32t31 79q0 44 -31 75t-75 31q-47 0 -79 -31t-32 -75z" />
    <glyph glyph-name="ogonek.case" horiz-adv-x="643" 
d="M416 -266l104 -49q-27 -51 -78.5 -84t-119.5 -33q-72 0 -135.5 49.5t-63.5 124.5q0 86 52 152.5t118 105.5h147q-15 -9 -28 -17.5t-45 -34.5t-54 -51.5t-40.5 -64t-18.5 -76.5q0 -30 25.5 -49.5t54.5 -19.5q53 0 82 47z" />
    <glyph glyph-name="tilde.case" horiz-adv-x="884" 
d="M123 1585v43q0 78 55 130t131 52q49 0 92.5 -19.5t68.5 -42.5t52 -42.5t47 -19.5q28 0 46 16t18 45v43h129v-43q0 -78 -55 -130t-132 -52q-49 0 -92.5 19.5t-68.5 43t-52 43t-47 19.5q-27 0 -45 -16t-18 -46v-43h-129z" />
    <glyph glyph-name="hungarumlaut.case" horiz-adv-x="931" 
d="M195 1524l-72 78l268 276l101 -109zM483 1524l-59 86l303 235l82 -121z" />
    <glyph glyph-name="endash.case" horiz-adv-x="1257" 
d="M113 643v111h1032v-111h-1032z" />
    <glyph glyph-name="emdash.case" horiz-adv-x="1998" 
d="M113 643v111h1773v-111h-1773z" />
    <glyph glyph-name="guilsinglleft.case" horiz-adv-x="638" 
d="M451 1001l-293 -337v-25l293 -338l-82 -78l-324 400v57l324 399z" />
    <glyph glyph-name="guilsinglright.case" horiz-adv-x="638" 
d="M481 664l-293 337l82 78l324 -399v-57l-324 -400l-82 78l293 338v25z" />
    <glyph glyph-name="zero.zero" horiz-adv-x="1198" 
d="M602 1430q205 0 336 -211q123 -193 123 -508q0 -316 -123 -516q-129 -211 -336 -211q-213 0 -342 211q-123 200 -123 516q0 315 123 508q131 211 342 211zM936 711q0 204 -57 358l-500 -840q86 -131 221 -131q153 0 248 181q88 168 88 432zM600 1315q-155 0 -250 -178
q-88 -164 -88 -426q0 -219 57 -365l498 840q-89 129 -217 129z" />
    <glyph glyph-name="a.ss01" horiz-adv-x="1216" 
d="M1059 1038v-1038h-121v182h-12q-139 -198 -351 -198q-128 0 -235 72t-169 195.5t-62 268.5q0 146 62 270t169 196.5t235 72.5q101 0 190.5 -55.5t160.5 -155.5h12v190h121zM938 504v18q0 191 -94 306.5t-260 115.5q-148 0 -249.5 -123t-101.5 -301q0 -177 101.5 -299.5
t249.5 -122.5q161 0 255 111.5t99 294.5z" />
    <glyph glyph-name="agrave.ss01" horiz-adv-x="1216" 
d="M1059 1038v-1038h-121v182h-12q-139 -198 -351 -198q-128 0 -235 72t-169 195.5t-62 268.5q0 146 62 270t169 196.5t235 72.5q101 0 190.5 -55.5t160.5 -155.5h12v190h121zM938 504v18q0 191 -94 306.5t-260 115.5q-148 0 -249.5 -123t-101.5 -301q0 -177 101.5 -299.5
t249.5 -122.5q161 0 255 111.5t99 294.5zM672 1159l-361 207l80 123l336 -244z" />
    <glyph glyph-name="aacute.ss01" horiz-adv-x="1216" 
d="M1059 1038v-1038h-121v182h-12q-139 -198 -351 -198q-128 0 -235 72t-169 195.5t-62 268.5q0 146 62 270t169 196.5t235 72.5q101 0 190.5 -55.5t160.5 -155.5h12v190h121zM938 504v18q0 191 -94 306.5t-260 115.5q-148 0 -249.5 -123t-101.5 -301q0 -177 101.5 -299.5
t249.5 -122.5q161 0 255 111.5t99 294.5zM829 1366l-360 -207l-55 86l336 244z" />
    <glyph glyph-name="acircumflex.ss01" horiz-adv-x="1216" 
d="M1059 1038v-1038h-121v182h-12q-139 -198 -351 -198q-128 0 -235 72t-169 195.5t-62 268.5q0 146 62 270t169 196.5t235 72.5q101 0 190.5 -55.5t160.5 -155.5h12v190h121zM938 504v18q0 191 -94 306.5t-260 115.5q-148 0 -249.5 -123t-101.5 -301q0 -177 101.5 -299.5
t249.5 -122.5q161 0 255 111.5t99 294.5zM535 1470h102l240 -217l-80 -90l-211 193l-211 -193l-80 90z" />
    <glyph glyph-name="atilde.ss01" horiz-adv-x="1216" 
d="M1059 1038v-1038h-121v182h-12q-139 -198 -351 -198q-128 0 -235 72t-169 195.5t-62 268.5q0 146 62 270t169 196.5t235 72.5q101 0 190.5 -55.5t160.5 -155.5h12v190h121zM938 504v18q0 191 -94 306.5t-260 115.5q-148 0 -249.5 -123t-101.5 -301q0 -177 101.5 -299.5
t249.5 -122.5q161 0 255 111.5t99 294.5zM276 1221v39q0 75 53 125.5t126 50.5q46 0 86 -19t62 -41.5t47.5 -41.5t47.5 -19q26 0 45 15.5t19 43.5v39h121v-39q0 -75 -52.5 -125.5t-125.5 -50.5q-46 0 -86 19t-62 41.5t-48 41.5t-48 19q-26 0 -45 -15.5t-19 -43.5v-39h-121z
" />
    <glyph glyph-name="adieresis.ss01" horiz-adv-x="1216" 
d="M1059 1038v-1038h-121v182h-12q-139 -198 -351 -198q-128 0 -235 72t-169 195.5t-62 268.5q0 146 62 270t169 196.5t235 72.5q101 0 190.5 -55.5t160.5 -155.5h12v190h121zM938 504v18q0 191 -94 306.5t-260 115.5q-148 0 -249.5 -123t-101.5 -301q0 -177 101.5 -299.5
t249.5 -122.5q161 0 255 111.5t99 294.5zM297 1315q0 37 27 64.5t65 27.5q37 0 64.5 -27.5t27.5 -64.5q0 -38 -27.5 -65t-64.5 -27q-38 0 -65 27t-27 65zM682 1315q0 37 27 64.5t65 27.5q37 0 64.5 -27.5t27.5 -64.5q0 -38 -27.5 -65t-64.5 -27q-38 0 -65 27t-27 65z" />
    <glyph glyph-name="aring.ss01" horiz-adv-x="1216" 
d="M1059 1038v-1038h-121v182h-12q-139 -198 -351 -198q-128 0 -235 72t-169 195.5t-62 268.5q0 146 62 270t169 196.5t235 72.5q101 0 190.5 -55.5t160.5 -155.5h12v190h121zM938 504v18q0 191 -94 306.5t-260 115.5q-148 0 -249.5 -123t-101.5 -301q0 -177 101.5 -299.5
t249.5 -122.5q161 0 255 111.5t99 294.5zM373 1348q0 86 62 147t151 61q86 0 147.5 -61t61.5 -147q0 -89 -61 -151t-148 -62q-89 0 -151 62t-62 151zM479 1348q0 -46 30.5 -76.5t76.5 -30.5q43 0 72.5 30.5t29.5 76.5q0 43 -29.5 72.5t-72.5 29.5q-46 0 -76.5 -29.5
t-30.5 -72.5z" />
    <glyph glyph-name="g.ss02" horiz-adv-x="1099" 
d="M1100 -125q0 -90 -68.5 -166t-186.5 -120t-257 -44q-219 0 -362.5 98t-143.5 232q0 92 53 155t139 97v10q-56 19 -91 54t-36 102q0 55 34.5 92.5t90.5 69.5v47q-40 43 -62 99.5t-22 111.5q0 142 115.5 244t276.5 102q117 0 206 -53l23 8q17 77 66 117t122 40q28 0 58 -6
l-19 -114q-24 4 -37 4q-54 0 -84.5 -33t-35.5 -92q88 -95 88 -217q0 -144 -114 -246t-273 -102q-120 0 -211 51q-101 -22 -101 -123q0 -92 140 -92h180q272 0 392 -76.5t120 -249.5zM977 -121q0 114 -90.5 162.5t-298.5 48.5q-194 0 -288.5 -59t-94.5 -152q0 -96 111 -159.5
t272 -63.5q164 0 276.5 63.5t112.5 159.5zM573 475q116 0 194.5 69t78.5 173q0 97 -79 164t-194 67q-109 0 -186.5 -67.5t-77.5 -163.5q0 -103 77 -172.5t187 -69.5z" />
    <glyph glyph-name="asterisk.ss04" horiz-adv-x="1339" 
d="M61 424l447 256l100 31q-17 7 -54 17.5t-48 14.5l-443 256l58 99l434 -252l88 -74l-22 109v508h114v-508l-22 -109q15 11 47 38.5t41 35.5l436 254l57 -99l-444 -258l-105 -32q68 -22 103 -31l446 -258l-57 -100l-438 253l-86 74q3 -19 11 -55t11 -51v-508h-114v508
l20 104q-46 -42 -84 -72l-438 -251z" />
    <glyph glyph-name="dollar.ss05" horiz-adv-x="1155" 
d="M530 -156v158q-101 10 -183 49t-132.5 94.5t-78.5 117t-30 122.5h125q5 -88 83.5 -166.5t215.5 -97.5v436q-63 11 -113.5 24.5t-103.5 38.5t-88 57t-57.5 81.5t-22.5 111.5q0 12 2 29t11 47.5t24 59t44.5 60.5t68.5 56t100 41t135 19v155h101v-159q155 -20 247 -111
t111 -248h-121q-20 111 -77.5 171t-159.5 73v-399q171 -28 242 -55q156 -61 182 -205q6 -32 6 -68q0 -56 -23.5 -110.5t-71.5 -105t-135 -83.5t-200 -37v-156h-101zM936 334q0 32 -6.5 57.5t-17.5 44.5t-32.5 34t-42 25t-57 19t-67.5 15t-82 14v-426q85 3 147.5 24.5t95 55
t47.5 68t15 69.5zM270 872q0 -40 15 -70.5t36 -49t59 -33.5t69.5 -22.5t80.5 -16.5v389q-111 -5 -185.5 -54t-74.5 -143z" />
    <glyph glyph-name="sterling.ss06" horiz-adv-x="1142" 
d="M844 545h-424q16 -83 16 -125q0 -173 -186 -309h758v-111h-926v119q40 18 78 45.5t74.5 67t58.5 95t22 117.5q0 52 -14 101h-199v102h185q-7 41 -17.5 91.5t-15 80.5t-4.5 66q0 73 34 133t88 97t116.5 57t123.5 20q76 0 139.5 -23.5t102 -58t65.5 -75t37.5 -72.5
t10.5 -52h-123q0 6 -7 22.5t-24.5 41.5t-42.5 47.5t-67.5 38.5t-92.5 16q-86 0 -161.5 -58t-75.5 -153q0 -20 1 -35t3.5 -36.5t4.5 -35t8.5 -50t10.5 -62.5h443v-102z" />
    <glyph glyph-name="commaaccent" horiz-adv-x="425" 
d="M111 -197q0 40 30.5 69.5t69.5 29.5q46 0 75 -31t29 -86v-14q0 -38 -23.5 -84.5t-47 -76.5t-58.5 -69l-59 56q65 62 80 112q-36 0 -66 28.5t-30 65.5z" />
    </font>
</defs>
</svg>
